<svg width="28" height="29" viewBox="0 0 28 29" fill="none" xmlns="http://www.w3.org/2000/svg">
<path d="M3.36504 28.7386C2.80984 28.7386 2.33851 28.543 1.95104 28.1519C1.56359 27.7608 1.36987 27.285 1.36987 26.7244C1.36987 26.1481 1.56359 25.67 1.95104 25.2902C2.33851 24.9104 2.80984 24.7205 3.36504 24.7205H24.0486C24.6117 24.7205 25.0896 24.9104 25.4824 25.2902C25.8752 25.67 26.0716 26.1481 26.0716 26.7244C26.0716 27.285 25.8752 27.7608 25.4824 28.1519C25.0896 28.543 24.6117 28.7386 24.0486 28.7386H3.36504ZM9.57762 19.9378C9.28976 19.9378 9.02597 19.8893 8.78625 19.7922C8.54652 19.6952 8.33286 19.5437 8.14525 19.3375L0.56312 11.779C0.178648 11.3878 -0.00894987 10.9126 0.000327913 10.3534C0.00957791 9.79413 0.201801 9.31442 0.576995 8.91425C0.967912 8.52978 1.44598 8.33754 2.0112 8.33754C2.5764 8.33754 3.05647 8.52978 3.45141 8.91425L9.57762 15.064L24.0178 0.600208C24.3838 0.200069 24.8504 0 25.4176 0C25.9848 0 26.4639 0.200069 26.8548 0.600208C27.23 0.984681 27.4176 1.45903 27.4176 2.02325C27.4176 2.58744 27.2346 3.07264 26.8687 3.47883L10.9587 19.3375C10.7711 19.5437 10.5583 19.6952 10.3203 19.7922C10.0824 19.8893 9.83479 19.9378 9.57762 19.9378Z" fill="black"/>
</svg>
