<svg width="29" height="36" viewBox="0 0 29 36" fill="none" xmlns="http://www.w3.org/2000/svg">
<path d="M14.4087 22.8611C14.9507 22.8611 15.4091 22.672 15.7841 22.294C16.1591 21.9159 16.3466 21.4568 16.3466 20.9167V18.6944H18.5688C19.1089 18.6944 19.568 18.5048 19.9461 18.1254C20.3242 17.7461 20.5133 17.2854 20.5133 16.7435C20.5133 16.2015 20.3242 15.7431 19.9461 15.3681C19.568 14.9931 19.1089 14.8056 18.5688 14.8056H16.3466V12.5833C16.3466 12.0432 16.1569 11.5841 15.7776 11.206C15.3982 10.828 14.9376 10.6389 14.3956 10.6389C13.8537 10.6389 13.3952 10.828 13.0203 11.206C12.6453 11.5841 12.4578 12.0432 12.4578 12.5833V14.8056H10.2355C9.69539 14.8056 9.23629 14.9952 8.85821 15.3746C8.48013 15.7539 8.29108 16.2146 8.29108 16.7565C8.29108 17.2985 8.48013 17.7569 8.85821 18.1319C9.23629 18.5069 9.69539 18.6944 10.2355 18.6944H12.4578V20.9167C12.4578 21.4568 12.6474 21.9159 13.0267 22.294C13.4061 22.672 13.8668 22.8611 14.4087 22.8611ZM14.4022 35.2162C14.2143 35.2162 14.0412 35.2066 13.883 35.1875C13.7247 35.1684 13.5792 35.1276 13.4464 35.0653C9.49502 33.8652 6.26611 31.4503 3.75967 27.8209C1.25322 24.1914 0 20.2141 0 15.8889V7.936C0 7.09261 0.240611 6.32336 0.721833 5.62825C1.20303 4.93314 1.84144 4.43367 2.63708 4.12983L13.0211 0.23975C13.4676 0.0799166 13.9279 0 14.4022 0C14.8764 0 15.346 0.0799166 15.811 0.23975L26.195 4.12983C26.9725 4.42514 27.6044 4.92167 28.0906 5.61942C28.5769 6.31714 28.82 7.08933 28.82 7.936V15.8889C28.82 20.2141 27.5642 24.1914 25.0525 27.8209C22.5408 31.4503 19.3104 33.8652 15.3612 35.0655C15.3688 35.0552 15.0491 35.1055 14.4022 35.2162ZM14.4022 31.2258C17.4086 30.1115 19.8909 28.1514 21.849 25.3455C23.8072 22.5395 24.7862 19.3876 24.7862 15.8897V7.93358L14.4022 4.04167L4.01813 7.94496V15.8788C4.01813 19.384 4.99718 22.5395 6.95529 25.3455C8.91343 28.1514 11.3957 30.1115 14.4022 31.2258Z" fill="black"/>
</svg>
