<svg width="139" height="40" viewBox="0 0 139 40" fill="none" xmlns="http://www.w3.org/2000/svg">
<g clip-path="url(#clip0_300_4865)">
<path d="M76.5528 5.60831C76.5528 5.12996 76.158 4.74219 75.6709 4.74219C75.1839 4.74219 74.7891 5.12996 74.7891 5.60831V6.70606C74.7891 7.1844 75.1839 7.57218 75.6709 7.57218C76.158 7.57218 76.5528 7.1844 76.5528 6.70606V5.60831Z" fill="black"/>
<path d="M19.4112 30.0413C18.9192 30.0413 18.5186 29.6525 18.5115 29.1696C18.4385 23.5419 21.0162 18.0742 25.9713 13.3323C26.1358 13.1751 26.1473 12.9182 25.9942 12.7497C25.761 12.4929 25.5436 12.2626 25.3276 12.0451C19.4585 6.08467 10.7842 2.64825 0.902616 2.37171C0.396236 2.35767 0 1.959 0 1.46487C0 0.970749 0.381931 0.584713 0.869716 0.558042C1.97546 0.49768 3.10265 0.466797 4.22127 0.466797C14.625 0.466797 25.2589 3.15782 33.4311 7.85341C41.5961 3.16062 52.2258 0.471008 62.6238 0.471008C63.7396 0.471008 64.8653 0.501891 65.9696 0.562253C66.4574 0.588925 66.8394 0.987594 66.8394 1.46909C66.8394 1.95058 66.4431 2.36188 65.9367 2.37592C56.0652 2.65667 47.3966 6.0945 41.5275 12.0549C41.3144 12.2711 41.0984 12.4999 40.8666 12.754C40.7136 12.9224 40.725 13.1793 40.8895 13.3365C45.8432 18.077 48.4194 23.5433 48.3465 29.171C48.3407 29.6539 47.9388 30.0427 47.4467 30.0427H19.4112V30.0413ZM46.5241 27.9806C46.2451 23.3201 43.9335 18.7733 39.8009 14.7585C39.615 14.5775 39.3089 14.6055 39.1529 14.8133C36.1976 18.7368 34.5326 23.2022 34.3294 27.7729L34.3352 27.9034C34.3366 27.9371 34.338 27.9722 34.3395 28.0059C34.3452 28.1561 34.4725 28.2754 34.6255 28.2754H46.2365C46.401 28.2754 46.5326 28.1406 46.5226 27.9792L46.5241 27.9806ZM32.2353 28.2768C32.3883 28.2768 32.5142 28.1575 32.5214 28.0073C32.5228 27.9722 32.5242 27.9371 32.5256 27.902L32.5314 27.7743C32.3282 23.2008 30.6646 18.7354 27.7093 14.8119C27.5534 14.6055 27.2473 14.5775 27.0613 14.7571C22.9287 18.7733 20.6157 23.3201 20.3368 27.9806C20.3267 28.1406 20.4598 28.2768 20.6228 28.2768H32.2338H32.2353ZM29.1569 13.7633C30.9421 16.1314 32.2825 18.675 33.1579 21.3534C33.2437 21.6159 33.6171 21.6159 33.7029 21.3534C34.5798 18.675 35.9201 16.1328 37.7053 13.7647C37.9313 13.4657 37.8755 13.0445 37.5823 12.8073C36.4193 11.8682 35.1562 10.9726 33.8116 10.1345C33.5785 9.98995 33.2795 9.98995 33.0463 10.1345C31.7031 10.9726 30.4415 11.8668 29.2799 12.8059C28.9867 13.0431 28.9309 13.4629 29.1569 13.7633ZM35.5654 9.14628C36.7626 9.93239 37.9242 10.7915 39.0328 11.711C39.1515 11.8092 39.3289 11.798 39.4333 11.6829C39.7165 11.3684 39.9783 11.0905 40.2358 10.8294C42.9451 8.07802 46.258 5.80532 49.9986 4.11097C50.3076 3.9706 50.1503 3.51016 49.817 3.58175C44.6788 4.66967 39.8481 6.39209 35.5868 8.66619C35.398 8.76727 35.388 9.02837 35.5668 9.14628H35.5654ZM17.0639 3.58456C16.7306 3.51437 16.5718 3.9734 16.8822 4.11378C20.6143 5.80532 23.92 8.0724 26.6222 10.8182C26.8825 11.0821 27.1457 11.3614 27.4304 11.6787C27.5334 11.7938 27.7107 11.805 27.8309 11.7068C28.9381 10.7887 30.0982 9.93099 31.294 9.14488C31.4728 9.02696 31.4628 8.76586 31.274 8.66479C27.0184 6.3935 22.1949 4.67388 17.0639 3.58456Z" fill="black"/>
<path d="M63.1885 12.9902C64.4101 12.9902 65.5573 13.2176 66.6316 13.6725C67.7059 14.1273 68.6442 14.7492 69.4482 15.5367C70.2506 16.3242 70.8843 17.2507 71.3478 18.3161C71.8113 19.3816 72.043 20.513 72.043 21.7118V29.1686C72.043 29.6473 71.6482 30.0348 71.1604 30.0348C70.6726 30.0348 70.2778 29.6473 70.2778 29.1686V21.7118C70.2778 20.7573 70.0919 19.8532 69.7185 18.9984C69.3452 18.1449 68.8416 17.4065 68.2094 16.7846C67.5757 16.1641 66.8233 15.67 65.9536 15.3036C65.0824 14.9373 64.1612 14.7548 63.1885 14.7548C62.2158 14.7548 61.3003 14.9373 60.4406 15.3036C59.5809 15.67 58.8299 16.1641 58.1848 16.7846C57.5396 17.4065 57.0318 18.1449 56.6585 18.9984C56.2851 19.8532 56.0992 20.7573 56.0992 21.7118V29.1686C56.0992 29.6473 55.7044 30.0348 55.2166 30.0348C54.7288 30.0348 54.334 29.6473 54.334 29.1686V21.7118C54.334 20.513 54.5657 19.3816 55.0292 18.3161C55.4927 17.2507 56.1263 16.3242 56.9288 15.5367C57.7313 14.7492 58.6697 14.1273 59.744 13.6725C60.8182 13.2176 61.9655 12.9902 63.1871 12.9902H63.1885Z" fill="black"/>
<path d="M76.5528 13.8564C76.5528 13.378 76.158 12.9902 75.6709 12.9902C75.1839 12.9902 74.7891 13.378 74.7891 13.8564V29.17C74.7891 29.6484 75.1839 30.0362 75.6709 30.0362C76.158 30.0362 76.5528 29.6484 76.5528 29.17V13.8564Z" fill="black"/>
<path d="M88.732 12.665C89.9536 12.665 91.1065 12.8925 92.1923 13.3473C93.278 13.8021 94.2221 14.424 95.0245 15.2115C95.827 15.999 96.4607 16.9255 96.9242 17.9909C97.3877 19.0564 97.6194 20.1878 97.6194 21.3866C97.6194 22.5855 97.3877 23.7113 96.9242 24.7655C96.4607 25.8197 95.827 26.7406 95.0245 27.5281C94.2221 28.3156 93.278 28.9375 92.1923 29.3923C91.1065 29.8471 89.9536 30.0745 88.732 30.0745C87.5104 30.0745 86.3632 29.8471 85.2889 29.3923C84.2146 28.9375 83.2762 28.3156 82.4738 27.5281C81.6713 26.7406 81.0376 25.8197 80.5741 24.7655C80.1106 23.7113 79.8789 22.5855 79.8789 21.3866V5.60831C79.8789 5.12963 80.2737 4.74219 80.7615 4.74219C81.2493 4.74219 81.6441 5.12963 81.6441 5.60831V15.7575C81.6441 15.8895 81.8115 15.9485 81.8973 15.846C82.6669 14.9265 83.6067 14.1839 84.7153 13.614C85.9483 12.9809 87.2872 12.665 88.7348 12.665H88.732ZM88.732 14.4296C87.7593 14.4296 86.8438 14.6121 85.9841 14.9784C85.1244 15.3448 84.3734 15.839 83.7283 16.4594C83.0831 17.0813 82.5753 17.8197 82.202 18.6732C81.8286 19.5281 81.6427 20.4321 81.6427 21.3866C81.6427 22.3412 81.8286 23.2396 82.202 24.0833C82.5753 24.9269 83.0846 25.6639 83.7283 26.297C84.3734 26.9301 85.1244 27.4284 85.9841 27.7948C86.8438 28.1612 87.7593 28.3437 88.732 28.3437C89.7047 28.3437 90.6259 28.1612 91.4971 27.7948C92.3668 27.4284 93.1192 26.9287 93.7529 26.297C94.3851 25.6639 94.8887 24.9269 95.262 24.0833C95.6354 23.2396 95.8213 22.3412 95.8213 21.3866C95.8213 20.4321 95.6354 19.5281 95.262 18.6732C94.8887 17.8197 94.3851 17.0813 93.7529 16.4594C93.1192 15.839 92.3668 15.3448 91.4971 14.9784C90.6259 14.6121 89.7047 14.4296 88.732 14.4296Z" fill="black"/>
<path d="M108.68 12.6631C109.901 12.6631 111.054 12.8905 112.14 13.3453C113.226 13.8001 114.17 14.422 114.972 15.2095C115.775 15.997 116.409 16.9235 116.872 17.989C117.335 19.0544 117.567 20.1859 117.567 21.3847V29.191C117.567 29.6781 117.165 30.0726 116.669 30.0726C116.172 30.0726 115.771 29.6781 115.771 29.191V27.0222C115.771 26.8903 115.602 26.8313 115.517 26.9352C114.766 27.849 113.839 28.5846 112.735 29.1405C111.502 29.761 110.152 30.0726 108.681 30.0726C107.46 30.0726 106.312 29.8452 105.238 29.3904C104.164 28.9355 103.225 28.3137 102.423 27.5262C101.62 26.7386 100.987 25.8178 100.523 24.7635C100.06 23.7093 99.8281 22.5835 99.8281 21.3847C99.8281 20.1859 100.06 19.0544 100.523 17.989C100.987 16.9235 101.62 15.997 102.423 15.2095C103.225 14.422 104.164 13.8001 105.238 13.3453C106.312 12.8905 107.46 12.6631 108.681 12.6631H108.68ZM108.68 14.4276C107.707 14.4276 106.792 14.6101 105.932 14.9765C105.072 15.3429 104.321 15.837 103.676 16.4575C103.031 17.0793 102.523 17.8177 102.15 18.6712C101.776 19.5261 101.59 20.4301 101.59 21.3847C101.59 22.3392 101.776 23.2377 102.15 24.0813C102.523 24.925 103.032 25.6634 103.676 26.2951C104.321 26.9282 105.072 27.4265 105.932 27.7929C106.792 28.1593 107.707 28.3418 108.68 28.3418C109.652 28.3418 110.574 28.1593 111.445 27.7929C112.315 27.4265 113.067 26.9268 113.701 26.2951C114.333 25.662 114.836 24.925 115.21 24.0813C115.583 23.2377 115.769 22.3392 115.769 21.3847C115.769 20.4301 115.583 19.5261 115.21 18.6712C114.836 17.8177 114.333 17.0793 113.701 16.4575C113.067 15.837 112.315 15.3429 111.445 14.9765C110.574 14.6101 109.652 14.4276 108.68 14.4276Z" fill="black"/>
<path d="M134.352 14.2031L127.944 29.2122C127.722 29.733 127.203 30.0713 126.626 30.0713C126.051 30.0713 125.532 29.733 125.309 29.2122L118.9 14.2031C118.654 13.6275 119.085 12.9902 119.721 12.9902C120.082 12.9902 120.405 13.2022 120.544 13.5293L126.493 27.5627C126.542 27.6778 126.708 27.6778 126.758 27.5627L132.707 13.5293C132.846 13.2036 133.171 12.9902 133.53 12.9902C134.166 12.9902 134.597 13.6261 134.351 14.2031H134.352Z" fill="black"/>
<path d="M63.1885 12.9902C64.4101 12.9902 65.5573 13.2176 66.6316 13.6725C67.7059 14.1273 68.6442 14.7492 69.4482 15.5367C70.2506 16.3242 70.8843 17.2507 71.3478 18.3161C71.8113 19.3816 72.043 20.513 72.043 21.7118V29.1686C72.043 29.6473 71.6482 30.0348 71.1604 30.0348C70.6726 30.0348 70.2778 29.6473 70.2778 29.1686V21.7118C70.2778 20.7573 70.0919 19.8532 69.7185 18.9984C69.3452 18.1449 68.8416 17.4065 68.2094 16.7846C67.5757 16.1641 66.8233 15.67 65.9536 15.3036C65.0824 14.9373 64.1612 14.7548 63.1885 14.7548C62.2158 14.7548 61.3003 14.9373 60.4406 15.3036C59.5809 15.67 58.8299 16.1641 58.1848 16.7846C57.5396 17.4065 57.0318 18.1449 56.6585 18.9984C56.2851 19.8532 56.0992 20.7573 56.0992 21.7118V29.1686C56.0992 29.6473 55.7044 30.0348 55.2166 30.0348C54.7288 30.0348 54.334 29.6473 54.334 29.1686V21.7118C54.334 20.513 54.5657 19.3816 55.0292 18.3161C55.4927 17.2507 56.1263 16.3242 56.9288 15.5367C57.7313 14.7492 58.6697 14.1273 59.744 13.6725C60.8182 13.2176 61.9655 12.9902 63.1871 12.9902H63.1885Z" fill="black"/>
<path d="M76.5528 13.8564C76.5528 13.378 76.158 12.9902 75.6709 12.9902C75.1839 12.9902 74.7891 13.378 74.7891 13.8564V29.17C74.7891 29.6484 75.1839 30.0362 75.6709 30.0362C76.158 30.0362 76.5528 29.6484 76.5528 29.17V13.8564Z" fill="black"/>
<path d="M88.732 12.665C89.9536 12.665 91.1065 12.8925 92.1923 13.3473C93.278 13.8021 94.2221 14.424 95.0245 15.2115C95.827 15.999 96.4607 16.9255 96.9242 17.9909C97.3877 19.0564 97.6194 20.1878 97.6194 21.3866C97.6194 22.5855 97.3877 23.7113 96.9242 24.7655C96.4607 25.8197 95.827 26.7406 95.0245 27.5281C94.2221 28.3156 93.278 28.9375 92.1923 29.3923C91.1065 29.8471 89.9536 30.0745 88.732 30.0745C87.5104 30.0745 86.3632 29.8471 85.2889 29.3923C84.2146 28.9375 83.2762 28.3156 82.4738 27.5281C81.6713 26.7406 81.0376 25.8197 80.5741 24.7655C80.1106 23.7113 79.8789 22.5855 79.8789 21.3866V5.60831C79.8789 5.12963 80.2737 4.74219 80.7615 4.74219C81.2493 4.74219 81.6441 5.12963 81.6441 5.60831V15.7575C81.6441 15.8895 81.8115 15.9485 81.8973 15.846C82.6669 14.9265 83.6067 14.1839 84.7153 13.614C85.9483 12.9809 87.2872 12.665 88.7348 12.665H88.732ZM88.732 14.4296C87.7593 14.4296 86.8438 14.6121 85.9841 14.9784C85.1244 15.3448 84.3734 15.839 83.7283 16.4594C83.0831 17.0813 82.5753 17.8197 82.202 18.6732C81.8286 19.5281 81.6427 20.4321 81.6427 21.3866C81.6427 22.3412 81.8286 23.2396 82.202 24.0833C82.5753 24.9269 83.0846 25.6639 83.7283 26.297C84.3734 26.9301 85.1244 27.4284 85.9841 27.7948C86.8438 28.1612 87.7593 28.3437 88.732 28.3437C89.7047 28.3437 90.6259 28.1612 91.4971 27.7948C92.3668 27.4284 93.1192 26.9287 93.7529 26.297C94.3851 25.6639 94.8887 24.9269 95.262 24.0833C95.6354 23.2396 95.8213 22.3412 95.8213 21.3866C95.8213 20.4321 95.6354 19.5281 95.262 18.6732C94.8887 17.8197 94.3851 17.0813 93.7529 16.4594C93.1192 15.839 92.3668 15.3448 91.4971 14.9784C90.6259 14.6121 89.7047 14.4296 88.732 14.4296Z" fill="black"/>
<path d="M108.68 12.6631C109.901 12.6631 111.054 12.8905 112.14 13.3453C113.226 13.8001 114.17 14.422 114.972 15.2095C115.775 15.997 116.409 16.9235 116.872 17.989C117.335 19.0544 117.567 20.1859 117.567 21.3847V29.191C117.567 29.6781 117.165 30.0726 116.669 30.0726C116.172 30.0726 115.771 29.6781 115.771 29.191V27.0222C115.771 26.8903 115.602 26.8313 115.517 26.9352C114.766 27.849 113.839 28.5846 112.735 29.1405C111.502 29.761 110.152 30.0726 108.681 30.0726C107.46 30.0726 106.312 29.8452 105.238 29.3904C104.164 28.9355 103.225 28.3137 102.423 27.5262C101.62 26.7386 100.987 25.8178 100.523 24.7635C100.06 23.7093 99.8281 22.5835 99.8281 21.3847C99.8281 20.1859 100.06 19.0544 100.523 17.989C100.987 16.9235 101.62 15.997 102.423 15.2095C103.225 14.422 104.164 13.8001 105.238 13.3453C106.312 12.8905 107.46 12.6631 108.681 12.6631H108.68ZM108.68 14.4276C107.707 14.4276 106.792 14.6101 105.932 14.9765C105.072 15.3429 104.321 15.837 103.676 16.4575C103.031 17.0793 102.523 17.8177 102.15 18.6712C101.776 19.5261 101.59 20.4301 101.59 21.3847C101.59 22.3392 101.776 23.2377 102.15 24.0813C102.523 24.925 103.032 25.6634 103.676 26.2951C104.321 26.9282 105.072 27.4265 105.932 27.7929C106.792 28.1593 107.707 28.3418 108.68 28.3418C109.652 28.3418 110.574 28.1593 111.445 27.7929C112.315 27.4265 113.067 26.9268 113.701 26.2951C114.333 25.662 114.836 24.925 115.21 24.0813C115.583 23.2377 115.769 22.3392 115.769 21.3847C115.769 20.4301 115.583 19.5261 115.21 18.6712C114.836 17.8177 114.333 17.0793 113.701 16.4575C113.067 15.837 112.315 15.3429 111.445 14.9765C110.574 14.6101 109.652 14.4276 108.68 14.4276Z" fill="black"/>
<path d="M134.352 14.2031L127.944 29.2122C127.722 29.733 127.203 30.0713 126.626 30.0713C126.051 30.0713 125.532 29.733 125.309 29.2122L118.9 14.2031C118.654 13.6275 119.085 12.9902 119.721 12.9902C120.082 12.9902 120.405 13.2022 120.544 13.5293L126.493 27.5627C126.542 27.6778 126.708 27.6778 126.758 27.5627L132.707 13.5293C132.846 13.2036 133.171 12.9902 133.53 12.9902C134.166 12.9902 134.597 13.6261 134.351 14.2031H134.352Z" fill="black"/>
<path d="M41.1249 34.873V39.7652H40.4741V37.5472H37.935V39.7652H37.2842V34.873H37.935V37.0208H40.4741V34.873H41.1249Z" fill="black"/>
<path d="M46.8037 39.4947C46.4218 39.2814 46.1214 38.9852 45.8997 38.6033C45.678 38.2215 45.5664 37.7934 45.5664 37.3161C45.5664 36.8388 45.6765 36.4093 45.8997 36.0288C46.1214 35.647 46.4232 35.3508 46.8037 35.1374C47.1842 34.9241 47.6077 34.8174 48.0697 34.8174C48.5317 34.8174 48.9609 34.9241 49.3428 35.1374C49.7247 35.3508 50.0251 35.6456 50.244 36.0246C50.4628 36.4036 50.573 36.8346 50.573 37.3161C50.573 37.7976 50.4628 38.2285 50.244 38.6076C50.0251 38.9866 49.7247 39.2828 49.3428 39.4961C48.9609 39.7095 48.5375 39.8148 48.0697 39.8148C47.6019 39.8148 47.1857 39.7081 46.8037 39.4961V39.4947ZM49.0109 39.0203C49.2899 38.8616 49.5087 38.6342 49.6689 38.3394C49.8292 38.0446 49.9078 37.7035 49.9078 37.3147C49.9078 36.9258 49.8277 36.5791 49.6689 36.2857C49.5087 35.9937 49.2913 35.7677 49.0138 35.6091C48.7377 35.4505 48.423 35.3705 48.0697 35.3705C47.7164 35.3705 47.4017 35.4505 47.1256 35.6091C46.8495 35.7677 46.6307 35.9937 46.4719 36.2857C46.3117 36.5777 46.2316 36.9216 46.2316 37.3147C46.2316 37.7077 46.3117 38.0446 46.4719 38.3394C46.6321 38.6342 46.851 38.8616 47.1299 39.0203C47.4088 39.1789 47.7221 39.2589 48.0711 39.2589C48.4202 39.2589 48.732 39.1789 49.0124 39.0203H49.0109Z" fill="black"/>
<path d="M60.0635 34.9082V39.7652H59.4126V36.1435L57.7676 39.7652H57.3099L55.6577 36.1365V39.7652H55.0068V34.9082H55.7078L57.5387 38.923L59.3697 34.9082H60.0635Z" fill="black"/>
<path d="M65.3921 35.3956V37.0309H67.2087V37.5574H65.3921V39.2419H67.4233V39.7683H64.7412V34.8691H67.4233V35.3956H65.3921Z" fill="black"/>
<path d="M78.1216 39.2458H79.8667V39.7652H77.4707V34.873H78.1216V39.2458Z" fill="black"/>
<path d="M84.7876 34.873V39.7652H84.1367V34.873H84.7876Z" fill="black"/>
<path d="M92.2907 34.873V35.3924H90.1235V37.0419H91.883V37.5613H90.1235V39.7652H89.4727V34.873H92.2907Z" fill="black"/>
<path d="M99.7216 34.873V35.3924H98.3626V39.7652H97.7118V35.3924H96.3457V34.873H99.7216Z" fill="black"/>
<path d="M104.797 39.6413C104.537 39.5262 104.334 39.3676 104.185 39.1641C104.038 38.9605 103.96 38.7261 103.956 38.4594H104.65C104.674 38.6882 104.77 38.8819 104.94 39.0377C105.109 39.1949 105.356 39.2721 105.68 39.2721C106.003 39.2721 106.235 39.1963 106.412 39.0447C106.591 38.8931 106.681 38.698 106.681 38.4594C106.681 38.2727 106.628 38.1197 106.524 38.0031C106.419 37.8866 106.288 37.7968 106.13 37.7364C105.973 37.6761 105.761 37.6101 105.494 37.5399C105.165 37.4557 104.902 37.3714 104.703 37.2872C104.505 37.203 104.335 37.071 104.195 36.8914C104.055 36.7117 103.983 36.4688 103.983 36.1642C103.983 35.8975 104.052 35.6617 104.191 35.4553C104.329 35.2489 104.524 35.0903 104.774 34.978C105.025 34.8657 105.312 34.8096 105.637 34.8096C106.105 34.8096 106.487 34.9247 106.784 35.1535C107.082 35.3823 107.25 35.6869 107.289 36.0659H106.574C106.549 35.8792 106.449 35.7136 106.273 35.5704C106.097 35.4272 105.863 35.3556 105.572 35.3556C105.301 35.3556 105.079 35.4244 104.907 35.5634C104.736 35.7024 104.65 35.8947 104.65 36.1417C104.65 36.32 104.701 36.4646 104.804 36.5769C104.907 36.6892 105.033 36.7748 105.183 36.8338C105.334 36.8928 105.545 36.9587 105.817 37.0331C106.146 37.1216 106.411 37.21 106.611 37.297C106.811 37.3841 106.983 37.5174 107.126 37.6971C107.269 37.8768 107.341 38.1211 107.341 38.4299C107.341 38.6685 107.276 38.8931 107.147 39.1037C107.019 39.3143 106.828 39.4855 106.575 39.6161C106.322 39.7466 106.024 39.8126 105.681 39.8126C105.338 39.8126 105.058 39.755 104.799 39.6413H104.797Z" fill="black"/>
<path d="M126.982 38.1962C127.456 38.1962 127.841 37.8191 127.841 37.354C127.841 36.8888 127.456 36.5117 126.982 36.5117C126.508 36.5117 126.124 36.8888 126.124 37.354C126.124 37.8191 126.508 38.1962 126.982 38.1962Z" fill="black"/>
<path d="M124.928 37.1426H117.783C117.664 37.1426 117.568 37.2369 117.568 37.3531C117.568 37.4694 117.664 37.5637 117.783 37.5637H124.928C125.047 37.5637 125.143 37.4694 125.143 37.3531C125.143 37.2369 125.047 37.1426 124.928 37.1426Z" fill="black"/>
<path d="M19.369 38.1962C19.843 38.1962 20.2273 37.8191 20.2273 37.354C20.2273 36.8888 19.843 36.5117 19.369 36.5117C18.895 36.5117 18.5107 36.8888 18.5107 37.354C18.5107 37.8191 18.895 38.1962 19.369 38.1962Z" fill="black"/>
<path d="M28.3011 37.1426H21.156C21.0375 37.1426 20.9414 37.2369 20.9414 37.3531C20.9414 37.4694 21.0375 37.5637 21.156 37.5637H28.3011C28.4196 37.5637 28.5157 37.4694 28.5157 37.3531C28.5157 37.2369 28.4196 37.1426 28.3011 37.1426Z" fill="black"/>
<path d="M137.734 11.8493L137.302 11.2064C137.249 11.2106 137.207 11.212 137.177 11.212H136.682V11.8493H136.396V9.75488H137.175C137.434 9.75488 137.639 9.81946 137.787 9.95001C137.936 10.0792 138.01 10.2574 138.01 10.4848C138.01 10.6463 137.972 10.7838 137.896 10.8975C137.82 11.0113 137.712 11.0941 137.57 11.146L138.043 11.8493H137.732H137.734ZM137.583 10.8358C137.679 10.7544 137.726 10.6379 137.726 10.4862C137.726 10.3346 137.679 10.2181 137.583 10.1381C137.487 10.0581 137.35 10.0174 137.168 10.0174H136.682V10.9593H137.168C137.348 10.9593 137.487 10.9186 137.583 10.8372V10.8358Z" fill="black"/>
<path d="M137.073 12.6605C136.01 12.6605 135.145 11.8113 135.145 10.7683C135.145 9.72526 136.01 8.87598 137.073 8.87598C138.136 8.87598 139.001 9.72526 139.001 10.7683C139.001 11.8113 138.136 12.6605 137.073 12.6605ZM137.073 9.15111C136.164 9.15111 135.425 9.87686 135.425 10.7683C135.425 11.6596 136.164 12.3854 137.073 12.3854C137.981 12.3854 138.719 11.6596 138.719 10.7683C138.719 9.87686 137.981 9.15111 137.073 9.15111Z" fill="black"/>
</g>
<defs>
<clipPath id="clip0_300_4865">
<rect width="139" height="39.3433" fill="white" transform="translate(0 0.466797)"/>
</clipPath>
</defs>
</svg>
