<svg width="153" height="43" viewBox="0 0 153 43" fill="none" xmlns="http://www.w3.org/2000/svg">
<rect width="153" height="43" fill="#1E1E1E"/>
<g clip-path="url(#clip0_0_1)">
<rect width="1280" height="8682" transform="translate(-80 -118)" fill="white"/>
<path d="M84.2637 5.6185C84.2637 5.09569 83.8291 4.67188 83.293 4.67188C82.7569 4.67188 82.3223 5.09569 82.3223 5.6185V6.81827C82.3223 7.34107 82.7569 7.76489 83.293 7.76489C83.8291 7.76489 84.2637 7.34107 84.2637 6.81827V5.6185Z" fill="black"/>
<path d="M21.3663 32.3233C20.8247 32.3233 20.3838 31.8983 20.376 31.3705C20.2957 25.2198 23.133 19.2439 28.5871 14.0613C28.7682 13.8894 28.7808 13.6087 28.6123 13.4246C28.3557 13.1438 28.1163 12.8922 27.8786 12.6544C21.4183 6.14001 11.8704 2.3842 0.993527 2.08196C0.436144 2.06661 0 1.63089 0 1.09084C0 0.55079 0.420399 0.128876 0.957313 0.0997253C2.17442 0.0337532 3.41515 0 4.64643 0C16.098 0 27.803 2.94113 36.7983 8.07314C45.7857 2.9442 57.486 0.0046027 68.9312 0.0046027C70.1594 0.0046027 71.3985 0.0383559 72.6141 0.104328C73.151 0.133478 73.5714 0.569201 73.5714 1.09544C73.5714 1.62169 73.1352 2.07122 72.5779 2.08656C61.712 2.39341 52.1704 6.15075 45.7101 12.6651C45.4755 12.9014 45.2378 13.1515 44.9827 13.4292C44.8142 13.6133 44.8268 13.894 45.0079 14.0659C50.4605 19.247 53.2962 25.2213 53.2159 31.372C53.2096 31.8998 52.7671 32.3248 52.2255 32.3248H21.3663V32.3233ZM51.2099 30.071C50.9029 24.9773 48.3585 20.008 43.8097 15.62C43.605 15.4221 43.268 15.4528 43.0964 15.6799C39.8434 19.9681 38.0107 24.8485 37.7871 29.8439L37.7934 29.9866C37.795 30.0234 37.7965 30.0618 37.7981 30.0986C37.8044 30.2628 37.9445 30.3932 38.113 30.3932H50.8935C51.0745 30.3932 51.2194 30.2459 51.2084 30.0695L51.2099 30.071ZM35.482 30.3947C35.6505 30.3947 35.789 30.2643 35.7969 30.1002C35.7985 30.0618 35.8 30.0234 35.8016 29.9851L35.8079 29.8455C35.5843 24.8469 33.7532 19.9665 30.5002 15.6783C30.3286 15.4528 29.9916 15.4221 29.7869 15.6185C25.2381 20.008 22.6921 24.9773 22.3851 30.071C22.374 30.2459 22.5205 30.3947 22.7 30.3947H35.4804H35.482ZM32.0936 14.5323C34.0586 17.1205 35.5339 19.9006 36.4976 22.8279C36.592 23.1148 37.003 23.1148 37.0974 22.8279C38.0626 19.9006 39.538 17.1221 41.503 14.5338C41.7517 14.207 41.6903 13.7467 41.3676 13.4875C40.0875 12.4611 38.6972 11.4822 37.2171 10.5663C36.9605 10.4082 36.6314 10.4082 36.3747 10.5663C34.8963 11.4822 33.5075 12.4595 32.229 13.4859C31.9062 13.7452 31.8448 14.2039 32.0936 14.5323ZM39.1475 9.48617C40.4654 10.3453 41.7439 11.2843 42.9641 12.2892C43.0948 12.3966 43.2901 12.3843 43.405 12.2585C43.7168 11.9149 44.0049 11.6111 44.2883 11.3257C47.2705 8.31862 50.9171 5.83469 55.0345 3.98287C55.3746 3.82945 55.2014 3.32622 54.8345 3.40447C49.1788 4.5935 43.8616 6.47601 39.1711 8.96147C38.9633 9.07193 38.9522 9.3573 39.1491 9.48617H39.1475ZM18.7825 3.40754C18.4157 3.33082 18.2409 3.83252 18.5826 3.98594C22.6905 5.8347 26.3293 8.31248 29.3035 11.3134C29.5901 11.6019 29.8798 11.9072 30.1931 12.2539C30.3065 12.3797 30.5017 12.392 30.634 12.2846C31.8527 11.2812 33.1296 10.3438 34.4459 9.48464C34.6428 9.35576 34.6317 9.0704 34.4239 8.95993C29.7397 6.47754 24.4304 4.5981 18.7825 3.40754Z" fill="black"/>
<path d="M69.5532 13.6929C70.8979 13.6929 72.1606 13.9414 73.3431 14.4385C74.5256 14.9356 75.5585 15.6153 76.4433 16.476C77.3267 17.3367 78.0242 18.3493 78.5343 19.5138C79.0445 20.6782 79.2995 21.9148 79.2995 23.2251V31.3749C79.2995 31.8981 78.865 32.3216 78.3281 32.3216C77.7911 32.3216 77.3566 31.8981 77.3566 31.3749V23.2251C77.3566 22.1818 77.1519 21.1937 76.7409 20.2594C76.33 19.3266 75.7757 18.5196 75.0798 17.8399C74.3823 17.1618 73.5541 16.6217 72.5968 16.2213C71.6379 15.8209 70.6239 15.6214 69.5532 15.6214C68.4825 15.6214 67.4748 15.8209 66.5285 16.2213C65.5823 16.6217 64.7556 17.1618 64.0455 17.8399C63.3354 18.5196 62.7764 19.3266 62.3655 20.2594C61.9545 21.1937 61.7499 22.1818 61.7499 23.2251V31.3749C61.7499 31.8981 61.3153 32.3216 60.7784 32.3216C60.2415 32.3216 59.8069 31.8981 59.8069 31.3749V23.2251C59.8069 21.9148 60.062 20.6782 60.5721 19.5138C61.0823 18.3493 61.7798 17.3367 62.6631 16.476C63.5464 15.6153 64.5793 14.9356 65.7617 14.4385C66.9442 13.9414 68.207 13.6929 69.5516 13.6929H69.5532Z" fill="black"/>
<path d="M84.2637 14.6397C84.2637 14.1169 83.8291 13.6931 83.293 13.6931C82.7569 13.6931 82.3223 14.1169 82.3223 14.6397V31.3767C82.3223 31.8995 82.7569 32.3233 83.293 32.3233C83.8291 32.3233 84.2637 31.8995 84.2637 31.3767V14.6397Z" fill="black"/>
<path d="M97.6686 13.3311C99.0132 13.3311 100.282 13.5796 101.477 14.0767C102.672 14.5738 103.712 15.2535 104.595 16.1142C105.478 16.9749 106.176 17.9875 106.686 19.152C107.196 20.3165 107.451 21.5531 107.451 22.8633C107.451 24.1735 107.196 25.404 106.686 26.5562C106.176 27.7084 105.478 28.7149 104.595 29.5756C103.712 30.4363 102.672 31.1159 101.477 31.613C100.282 32.1101 99.0132 32.3587 97.6686 32.3587C96.3239 32.3587 95.0612 32.1101 93.8787 31.613C92.6962 31.1159 91.6633 30.4363 90.78 29.5756C89.8967 28.7149 89.1992 27.7084 88.6891 26.5562C88.1789 25.404 87.9238 24.1735 87.9238 22.8633V5.6185C87.9238 5.09532 88.3584 4.67188 88.8953 4.67188C89.4322 4.67188 89.8668 5.09532 89.8668 5.6185V16.711C89.8668 16.8552 90.051 16.9197 90.1455 16.8077C90.9926 15.8027 92.027 14.9911 93.2473 14.3682C94.6045 13.6763 96.0783 13.3311 97.6717 13.3311H97.6686ZM97.6686 15.2596C96.5979 15.2596 95.5902 15.4591 94.6439 15.8595C93.6976 16.26 92.871 16.8 92.1609 17.4781C91.4508 18.1578 90.8918 18.9648 90.4809 19.8976C90.0699 20.832 89.8652 21.82 89.8652 22.8633C89.8652 23.9066 90.0699 24.8885 90.4809 25.8106C90.8918 26.7326 91.4524 27.5381 92.1609 28.2301C92.871 28.922 93.6976 29.4666 94.6439 29.8671C95.5902 30.2675 96.5979 30.467 97.6686 30.467C98.7393 30.467 99.7533 30.2675 100.712 29.8671C101.669 29.4666 102.498 28.9205 103.195 28.2301C103.891 27.5381 104.445 26.7326 104.856 25.8106C105.267 24.8885 105.472 23.9066 105.472 22.8633C105.472 21.82 105.267 20.832 104.856 19.8976C104.445 18.9648 103.891 18.1578 103.195 17.4781C102.498 16.8 101.669 16.26 100.712 15.8595C99.7533 15.4591 98.7393 15.2596 97.6686 15.2596Z" fill="black"/>
<path d="M119.626 13.3325C120.971 13.3325 122.24 13.5811 123.435 14.0782C124.63 14.5752 125.669 15.2549 126.552 16.1156C127.436 16.9763 128.133 17.9889 128.643 19.1534C129.154 20.3179 129.409 21.5545 129.409 22.8647V31.3966C129.409 31.929 128.966 32.3601 128.42 32.3601C127.873 32.3601 127.431 31.929 127.431 31.3966V29.0262C127.431 28.882 127.245 28.8176 127.152 28.9311C126.326 29.9299 125.305 30.7338 124.09 31.3414C122.733 32.0195 121.246 32.3601 119.628 32.3601C118.283 32.3601 117.02 32.1116 115.838 31.6145C114.655 31.1174 113.622 30.4377 112.739 29.577C111.856 28.7163 111.158 27.7098 110.648 26.5576C110.138 25.4054 109.883 24.175 109.883 22.8647C109.883 21.5545 110.138 20.3179 110.648 19.1534C111.158 17.9889 111.856 16.9763 112.739 16.1156C113.622 15.2549 114.655 14.5752 115.838 14.0782C117.02 13.5811 118.283 13.3325 119.628 13.3325H119.626ZM119.626 15.2611C118.555 15.2611 117.548 15.4605 116.601 15.8609C115.655 16.2614 114.828 16.8014 114.118 17.4796C113.408 18.1592 112.849 18.9662 112.438 19.899C112.027 20.8334 111.823 21.8214 111.823 22.8647C111.823 23.908 112.027 24.8899 112.438 25.812C112.849 26.7341 113.41 27.5411 114.118 28.2315C114.828 28.9234 115.655 29.4681 116.601 29.8685C117.548 30.2689 118.555 30.4684 119.626 30.4684C120.697 30.4684 121.711 30.2689 122.67 29.8685C123.627 29.4681 124.455 28.9219 125.153 28.2315C125.849 27.5395 126.403 26.7341 126.814 25.812C127.225 24.8899 127.429 23.908 127.429 22.8647C127.429 21.8214 127.225 20.8334 126.814 19.899C126.403 18.9662 125.849 18.1592 125.153 17.4796C124.455 16.8014 123.627 16.2614 122.67 15.8609C121.711 15.4605 120.697 15.2611 119.626 15.2611Z" fill="black"/>
<path d="M147.884 15.0185L140.83 31.4225C140.586 31.9917 140.015 32.3614 139.38 32.3614C138.747 32.3614 138.176 31.9917 137.93 31.4225L130.876 15.0185C130.605 14.3894 131.079 13.6929 131.78 13.6929C132.177 13.6929 132.533 13.9245 132.685 14.282L139.234 29.6198C139.287 29.7456 139.47 29.7456 139.525 29.6198L146.073 14.282C146.226 13.9261 146.584 13.6929 146.979 13.6929C147.679 13.6929 148.153 14.3879 147.883 15.0185H147.884Z" fill="black"/>
<path d="M69.5532 13.6929C70.8979 13.6929 72.1606 13.9414 73.3431 14.4385C74.5256 14.9356 75.5585 15.6153 76.4433 16.476C77.3267 17.3367 78.0242 18.3493 78.5343 19.5138C79.0445 20.6782 79.2995 21.9148 79.2995 23.2251V31.3749C79.2995 31.8981 78.865 32.3216 78.3281 32.3216C77.7911 32.3216 77.3566 31.8981 77.3566 31.3749V23.2251C77.3566 22.1818 77.1519 21.1937 76.7409 20.2594C76.33 19.3266 75.7757 18.5196 75.0798 17.8399C74.3823 17.1618 73.5541 16.6217 72.5968 16.2213C71.6379 15.8209 70.6239 15.6214 69.5532 15.6214C68.4825 15.6214 67.4748 15.8209 66.5285 16.2213C65.5823 16.6217 64.7556 17.1618 64.0455 17.8399C63.3354 18.5196 62.7764 19.3266 62.3655 20.2594C61.9545 21.1937 61.7499 22.1818 61.7499 23.2251V31.3749C61.7499 31.8981 61.3153 32.3216 60.7784 32.3216C60.2415 32.3216 59.8069 31.8981 59.8069 31.3749V23.2251C59.8069 21.9148 60.062 20.6782 60.5721 19.5138C61.0823 18.3493 61.7798 17.3367 62.6631 16.476C63.5464 15.6153 64.5793 14.9356 65.7617 14.4385C66.9442 13.9414 68.207 13.6929 69.5516 13.6929H69.5532Z" fill="black"/>
<path d="M84.2637 14.6395C84.2637 14.1167 83.8291 13.6929 83.293 13.6929C82.7569 13.6929 82.3223 14.1167 82.3223 14.6395V31.3765C82.3223 31.8993 82.7569 32.3231 83.293 32.3231C83.8291 32.3231 84.2637 31.8993 84.2637 31.3765V14.6395Z" fill="black"/>
<path d="M97.6686 13.3311C99.0132 13.3311 100.282 13.5796 101.477 14.0767C102.672 14.5738 103.712 15.2535 104.595 16.1142C105.478 16.9749 106.176 17.9875 106.686 19.152C107.196 20.3165 107.451 21.5531 107.451 22.8633C107.451 24.1735 107.196 25.404 106.686 26.5562C106.176 27.7084 105.478 28.7149 104.595 29.5756C103.712 30.4363 102.672 31.1159 101.477 31.613C100.282 32.1101 99.0132 32.3587 97.6686 32.3587C96.3239 32.3587 95.0612 32.1101 93.8787 31.613C92.6962 31.1159 91.6633 30.4363 90.78 29.5756C89.8967 28.7149 89.1992 27.7084 88.6891 26.5562C88.1789 25.404 87.9238 24.1735 87.9238 22.8633V5.6185C87.9238 5.09532 88.3584 4.67188 88.8953 4.67188C89.4322 4.67188 89.8668 5.09532 89.8668 5.6185V16.711C89.8668 16.8552 90.051 16.9197 90.1455 16.8077C90.9926 15.8027 92.027 14.9911 93.2473 14.3682C94.6045 13.6763 96.0783 13.3311 97.6717 13.3311H97.6686ZM97.6686 15.2596C96.5979 15.2596 95.5902 15.4591 94.6439 15.8595C93.6976 16.26 92.871 16.8 92.1609 17.4781C91.4508 18.1578 90.8918 18.9648 90.4809 19.8976C90.0699 20.832 89.8652 21.82 89.8652 22.8633C89.8652 23.9066 90.0699 24.8885 90.4809 25.8106C90.8918 26.7326 91.4524 27.5381 92.1609 28.2301C92.871 28.922 93.6976 29.4666 94.6439 29.8671C95.5902 30.2675 96.5979 30.467 97.6686 30.467C98.7393 30.467 99.7533 30.2675 100.712 29.8671C101.669 29.4666 102.498 28.9205 103.195 28.2301C103.891 27.5381 104.445 26.7326 104.856 25.8106C105.267 24.8885 105.472 23.9066 105.472 22.8633C105.472 21.82 105.267 20.832 104.856 19.8976C104.445 18.9648 103.891 18.1578 103.195 17.4781C102.498 16.8 101.669 16.26 100.712 15.8595C99.7533 15.4591 98.7393 15.2596 97.6686 15.2596Z" fill="black"/>
<path d="M119.626 13.3325C120.971 13.3325 122.24 13.5811 123.435 14.0782C124.63 14.5752 125.669 15.2549 126.552 16.1156C127.436 16.9763 128.133 17.9889 128.643 19.1534C129.154 20.3179 129.409 21.5545 129.409 22.8647V31.3966C129.409 31.929 128.966 32.3601 128.42 32.3601C127.873 32.3601 127.431 31.929 127.431 31.3966V29.0262C127.431 28.882 127.245 28.8176 127.152 28.9311C126.326 29.9299 125.305 30.7338 124.09 31.3414C122.733 32.0195 121.246 32.3601 119.628 32.3601C118.283 32.3601 117.02 32.1116 115.838 31.6145C114.655 31.1174 113.622 30.4377 112.739 29.577C111.856 28.7163 111.158 27.7098 110.648 26.5576C110.138 25.4054 109.883 24.175 109.883 22.8647C109.883 21.5545 110.138 20.3179 110.648 19.1534C111.158 17.9889 111.856 16.9763 112.739 16.1156C113.622 15.2549 114.655 14.5752 115.838 14.0782C117.02 13.5811 118.283 13.3325 119.628 13.3325H119.626ZM119.626 15.2611C118.555 15.2611 117.548 15.4605 116.601 15.8609C115.655 16.2614 114.828 16.8014 114.118 17.4796C113.408 18.1592 112.849 18.9662 112.438 19.899C112.027 20.8334 111.823 21.8214 111.823 22.8647C111.823 23.908 112.027 24.8899 112.438 25.812C112.849 26.7341 113.41 27.5411 114.118 28.2315C114.828 28.9234 115.655 29.4681 116.601 29.8685C117.548 30.2689 118.555 30.4684 119.626 30.4684C120.697 30.4684 121.711 30.2689 122.67 29.8685C123.627 29.4681 124.455 28.9219 125.153 28.2315C125.849 27.5395 126.403 26.7341 126.814 25.812C127.225 24.8899 127.429 23.908 127.429 22.8647C127.429 21.8214 127.225 20.8334 126.814 19.899C126.403 18.9662 125.849 18.1592 125.153 17.4796C124.455 16.8014 123.627 16.2614 122.67 15.8609C121.711 15.4605 120.697 15.2611 119.626 15.2611Z" fill="black"/>
<path d="M147.884 15.0185L140.83 31.4225C140.586 31.9917 140.015 32.3614 139.38 32.3614C138.747 32.3614 138.176 31.9917 137.93 31.4225L130.876 15.0185C130.605 14.3894 131.079 13.6929 131.78 13.6929C132.177 13.6929 132.533 13.9245 132.685 14.282L139.234 29.6198C139.287 29.7456 139.47 29.7456 139.525 29.6198L146.073 14.282C146.226 13.9261 146.584 13.6929 146.979 13.6929C147.679 13.6929 148.153 14.3879 147.883 15.0185H147.884Z" fill="black"/>
<path d="M139.773 41.2368C140.294 41.2368 140.717 40.8247 140.717 40.3163C140.717 39.8079 140.294 39.3958 139.773 39.3958C139.251 39.3958 138.828 39.8079 138.828 40.3163C138.828 40.8247 139.251 41.2368 139.773 41.2368Z" fill="black"/>
<path d="M137.511 40.0852H129.646C129.516 40.0852 129.41 40.1882 129.41 40.3153C129.41 40.4424 129.516 40.5455 129.646 40.5455H137.511C137.642 40.5455 137.747 40.4424 137.747 40.3153C137.747 40.1882 137.642 40.0852 137.511 40.0852Z" fill="black"/>
<path d="M21.3197 41.2368C21.8415 41.2368 22.2644 40.8247 22.2644 40.3163C22.2644 39.8079 21.8415 39.3958 21.3197 39.3958C20.798 39.3958 20.375 39.8079 20.375 40.3163C20.375 40.8247 20.798 41.2368 21.3197 41.2368Z" fill="black"/>
<path d="M31.1517 40.0852H23.287C23.1565 40.0852 23.0508 40.1882 23.0508 40.3153C23.0508 40.4424 23.1565 40.5455 23.287 40.5455H31.1517C31.2822 40.5455 31.3879 40.4424 31.3879 40.3153C31.3879 40.1882 31.2822 40.0852 31.1517 40.0852Z" fill="black"/>
<path d="M151.607 12.4441L151.131 11.7414C151.073 11.746 151.026 11.7476 150.993 11.7476H150.448V12.4441H150.133V10.155H150.991C151.276 10.155 151.501 10.2256 151.665 10.3683C151.829 10.5094 151.91 10.7043 151.91 10.9528C151.91 11.1293 151.868 11.2796 151.784 11.4039C151.701 11.5282 151.581 11.6187 151.426 11.6755L151.947 12.4441H151.603H151.607ZM151.44 11.3364C151.545 11.2474 151.597 11.1201 151.597 10.9544C151.597 10.7887 151.545 10.6613 151.44 10.5739C151.334 10.4864 151.183 10.4419 150.983 10.4419H150.448V11.4714H150.983C151.181 11.4714 151.334 11.4269 151.44 11.3379V11.3364Z" fill="black"/>
<path d="M150.878 13.3326C149.708 13.3326 148.756 12.4044 148.756 11.2644C148.756 10.1245 149.708 9.19629 150.878 9.19629C152.048 9.19629 153.001 10.1245 153.001 11.2644C153.001 12.4044 152.048 13.3326 150.878 13.3326ZM150.878 9.497C149.878 9.497 149.064 10.2902 149.064 11.2644C149.064 12.2387 149.878 13.0319 150.878 13.0319C151.878 13.0319 152.691 12.2387 152.691 11.2644C152.691 10.2902 151.878 9.497 150.878 9.497Z" fill="black"/>
<path d="M45.2667 37.6006V42.9474H44.5503V40.5233H41.7555V42.9474H41.0391V37.6006H41.7555V39.948H44.5503V37.6006H45.2667Z" fill="black"/>
<path d="M51.5182 42.6497C51.0978 42.4165 50.7672 42.0927 50.5231 41.6754C50.2791 41.2581 50.1562 40.7902 50.1562 40.2685C50.1562 39.7469 50.2775 39.2774 50.5231 38.8616C50.7672 38.4443 51.0994 38.1206 51.5182 37.8874C51.937 37.6542 52.4031 37.5376 52.9117 37.5376C53.4202 37.5376 53.8926 37.6542 54.313 37.8874C54.7334 38.1206 55.064 38.4428 55.305 38.857C55.5459 39.2713 55.6671 39.7423 55.6671 40.2685C55.6671 40.7948 55.5459 41.2658 55.305 41.68C55.064 42.0943 54.7334 42.418 54.313 42.6512C53.8926 42.8844 53.4265 42.9995 52.9117 42.9995C52.3968 42.9995 51.9386 42.8829 51.5182 42.6512V42.6497ZM53.9477 42.1311C54.2547 41.9577 54.4956 41.7092 54.672 41.387C54.8483 41.0648 54.9349 40.692 54.9349 40.267C54.9349 39.842 54.8468 39.4631 54.672 39.1424C54.4956 38.8233 54.2563 38.5763 53.9509 38.4029C53.647 38.2295 53.3006 38.1421 52.9117 38.1421C52.5228 38.1421 52.1764 38.2295 51.8725 38.4029C51.5686 38.5763 51.3277 38.8233 51.1529 39.1424C50.9766 39.4615 50.8884 39.8374 50.8884 40.267C50.8884 40.6966 50.9766 41.0648 51.1529 41.387C51.3293 41.7092 51.5702 41.9577 51.8772 42.1311C52.1842 42.3045 52.5291 42.3919 52.9132 42.3919C53.2974 42.3919 53.6407 42.3045 53.9493 42.1311H53.9477Z" fill="black"/>
<path d="M66.1128 37.6389V42.9474H65.3964V38.989L63.5857 42.9474H63.0819L61.2633 38.9814V42.9474H60.5469V37.6389H61.3184L63.3338 42.0268L65.3492 37.6389H66.1128Z" fill="black"/>
<path d="M71.9781 38.1688V39.9562H73.9778V40.5316H71.9781V42.3726H74.214V42.948H71.2617V37.5935H74.214V38.1688H71.9781Z" fill="black"/>
<path d="M85.9898 42.3797H87.9108V42.9474H85.2734V37.6006H85.9898V42.3797Z" fill="black"/>
<path d="M93.3277 37.6006V42.9474H92.6113V37.6006H93.3277Z" fill="black"/>
<path d="M101.586 37.6006V38.1683H99.2008V39.971H101.137V40.5386H99.2008V42.9474H98.4844V37.6006H101.586Z" fill="black"/>
<path d="M109.765 37.6006V38.1683H108.269V42.9474H107.552V38.1683H106.049V37.6006H109.765Z" fill="black"/>
<path d="M115.352 42.8114C115.065 42.6855 114.841 42.5122 114.678 42.2897C114.516 42.0673 114.431 41.811 114.426 41.5195H115.189C115.216 41.7696 115.322 41.9813 115.509 42.1516C115.695 42.3235 115.967 42.4079 116.323 42.4079C116.679 42.4079 116.934 42.325 117.129 42.1593C117.326 41.9936 117.425 41.7803 117.425 41.5195C117.425 41.3155 117.367 41.1482 117.252 41.0209C117.137 40.8936 116.992 40.7954 116.819 40.7294C116.646 40.6634 116.413 40.5913 116.118 40.5146C115.756 40.4226 115.467 40.3305 115.248 40.2384C115.03 40.1464 114.843 40.0022 114.689 39.8058C114.534 39.6094 114.456 39.344 114.456 39.0111C114.456 38.7196 114.531 38.4618 114.684 38.2363C114.837 38.0107 115.051 37.8374 115.326 37.7146C115.602 37.5919 115.918 37.5305 116.276 37.5305C116.791 37.5305 117.211 37.6563 117.539 37.9064C117.866 38.1565 118.052 38.4894 118.094 38.9037H117.307C117.28 38.6996 117.17 38.5186 116.977 38.3621C116.783 38.2056 116.525 38.1273 116.205 38.1273C115.906 38.1273 115.662 38.2025 115.473 38.3544C115.284 38.5063 115.189 38.7165 115.189 38.9865C115.189 39.1814 115.246 39.3394 115.359 39.4621C115.473 39.5849 115.611 39.6784 115.777 39.7429C115.942 39.8073 116.175 39.8794 116.474 39.9607C116.836 40.0574 117.128 40.1541 117.348 40.2492C117.569 40.3443 117.757 40.4901 117.915 40.6864C118.072 40.8828 118.151 41.1498 118.151 41.4873C118.151 41.7481 118.08 41.9936 117.939 42.2237C117.797 42.4539 117.587 42.6411 117.309 42.7837C117.03 42.9264 116.703 42.9985 116.325 42.9985C115.947 42.9985 115.638 42.9356 115.353 42.8114H115.352Z" fill="black"/>
</g>
<defs>
<clipPath id="clip0_0_1">
<rect width="1280" height="8682" fill="white" transform="translate(-80 -118)"/>
</clipPath>
</defs>
</svg>
