<svg width="1280" height="596" viewBox="0 0 1280 596" fill="none" xmlns="http://www.w3.org/2000/svg">
<g clip-path="url(#clip0_101_93)">
<path d="M803.54 24.9604H801.538V80.2532H803.54V24.9604Z" fill="#DDDDDD"/>
<path d="M838.101 24.9604H801.538V56.4591H838.101V24.9604Z" fill="#C9C9D7"/>
<path d="M1279.97 327.559C1279.92 390.832 1279.78 460.652 1279.67 511.326V511.864H1279.57C1279.13 511.847 1276.62 511.765 1262.36 511.292C1245.05 510.715 1248.08 508.434 1234.37 495.865C1220.66 483.301 1184.11 495.865 1181.25 456.451C1180.98 452.637 1180.3 448.979 1179.31 445.471C1179.24 445.217 1179.16 444.963 1179.09 444.709C1163.06 445.01 1134.83 445.471 1111.63 445.471C1105.18 445.471 1099.12 445.436 1093.82 445.35C1084.92 445.208 1078.17 444.933 1075.31 444.451C1061.6 442.165 1063.02 410.748 1063.02 410.748L1020.38 306.21L993.885 325.704L993.799 325.769L993.726 325.825L981.922 337.627C981.922 337.627 949.939 346.769 947.653 347.91C945.368 349.055 927.092 367.908 927.092 367.908H913.957L889.97 381.044C889.97 381.044 903.392 386.188 910.532 391.611C917.667 397.039 1032.19 497.583 1034.76 498.151C1037.32 498.723 1094.16 499.58 1094.16 499.58C1094.16 499.58 1089.87 553.564 1094.16 553.564H1279.57C1279.52 572.15 1279.49 596 1279.49 596H218.869V445.027C218.869 445.027 295.117 434.456 298.259 434.456C301.4 434.456 342.236 427.888 343.097 427.031C343.953 426.175 350.804 409.607 368.797 398.752C386.789 387.901 433.62 353.338 439.903 349.339C446.186 345.34 475.888 325.347 484.452 319.347C493.02 313.351 491.307 310.781 503.873 307.639C516.439 304.497 552.705 301.355 557.275 301.067C561.845 300.783 567.272 300.783 571.838 295.927C576.408 291.072 578.693 281.073 585.26 277.075C591.831 273.076 613.534 257.938 617.532 252.226C621.53 246.514 660.652 191.673 665.795 185.105C670.933 178.532 674.931 167.965 681.786 163.683C688.638 159.396 708.627 143.685 713.77 140.831C718.908 137.973 727.764 129.403 728.332 130.833C728.905 132.262 733.475 138.83 735.76 137.405C738.041 135.976 744.04 130.548 746.325 127.979C748.61 125.405 765.458 111.984 769.456 107.413C773.424 102.876 801.289 78.9445 801.723 78.57H801.728C801.728 78.57 841.134 93.7038 844.848 97.9866C848.562 102.269 864.838 129.404 870.837 131.405C876.832 133.406 921.669 148.256 923.95 149.113C926.235 149.969 940.23 156.826 945.368 155.969C950.511 155.113 954.509 156.542 955.649 153.968C956.794 151.398 963.077 139.118 968.499 138.83C973.926 138.546 981.638 134.547 989.633 132.262C997.629 129.976 1002.48 129.976 1009.34 127.122C1016.19 124.264 1015.33 124.548 1019.05 121.979C1022.76 119.409 1034.47 107.125 1044.46 103.698C1054.46 100.272 1073.88 87.9878 1081.87 84.2775C1089.87 80.5629 1092.73 76.8483 1100.15 69.9959C1104.14 66.3114 1107.3 63.0445 1109.69 60.7546C1109.7 60.746 1109.72 60.7331 1109.73 60.7202C1111.77 58.7747 1113.22 57.5565 1114.14 57.4274C1116.14 57.1433 1123 57.1433 1124.14 57.4274C1125.28 57.7115 1129.85 60.8536 1133.28 64.2841C1136.7 67.7103 1143.27 76.5642 1152.12 81.1354C1160.98 85.7065 1188.39 98.8432 1194.96 102.558C1201.53 106.268 1216.38 112.552 1222.66 115.126C1228.94 117.696 1229.8 116.551 1233.8 121.122C1237.8 125.693 1278.35 170.251 1279.49 170.251C1279.97 170.251 1280.05 243.071 1279.97 327.559Z" fill="#F4F3F8"/>
<path d="M1279.67 462.163V511.864L1262.36 511.292C1245.05 510.715 1248.08 508.434 1234.37 495.865C1220.66 483.301 1184.11 495.865 1181.25 456.451C1180.96 452.362 1180.2 448.445 1179.09 444.709C1169.44 412.401 1132.66 393.376 1129.85 391.327C1126.71 389.042 1111.57 390.755 1107.01 389.898C1102.44 389.042 1081.87 365.334 1078.16 360.479C1074.45 355.624 1031.04 311.638 1028.76 308.208C1026.47 304.781 1021.91 306.021 1020.38 306.21C1018.93 306.391 996.007 324.065 993.885 325.705L993.799 325.769L993.726 325.825C993.726 325.825 962.883 315.732 953.747 312.305C944.607 308.875 940.802 308.113 937.566 306.4C934.326 304.687 880.64 206.812 876.832 200.717C873.023 194.626 867.885 186.246 862.742 181.864C857.604 177.487 842.563 186.057 831.71 187.959C820.861 189.866 813.433 182.626 810.008 180.913C806.582 179.2 788.112 191.007 780.878 194.243C773.644 197.48 763.173 201.862 759.748 202.241C756.318 202.624 753.082 193.292 753.082 191.196C753.082 189.1 761.03 175.537 765.6 163.253C770.171 150.973 772.456 126.55 772.74 124.837C773.028 123.132 801.379 79.1083 801.723 78.5703H801.728C801.728 78.5703 841.134 93.7041 844.848 97.9869C848.562 102.27 864.838 129.404 870.837 131.405C876.832 133.407 921.669 148.257 923.95 149.113C926.235 149.97 940.23 156.826 945.368 155.97L949.938 186.246L1152.12 337.059L1162.98 359.906C1162.98 359.906 1177.26 373.62 1198.39 392.468C1219.52 411.321 1279.67 462.163 1279.67 462.163Z" fill="#DCDCE5"/>
<path d="M1279.97 327.559L1229.94 288.214L1230.37 262.935L1190.54 237.66L1169.54 188.6C1169.54 188.6 1081.3 210.238 1070.59 213.664L1021.05 235.375L1054.74 211.383C1054.74 211.383 1105.86 197.669 1107.57 196.529C1109.29 195.384 1118.71 179.105 1120.43 178.248C1122.14 177.392 1148.13 167.109 1153.27 161.965C1158.41 156.826 1164.69 141.688 1159.26 127.122C1153.84 112.552 1140.99 107.985 1140.99 107.985L1119.57 63.1392C1119.57 63.1392 1111.18 59.3041 1109.73 60.7202C1111.77 58.7747 1113.22 57.5565 1114.15 57.4274C1116.14 57.1433 1123 57.1433 1124.14 57.4274C1125.28 57.7115 1129.85 60.8536 1133.28 64.2841C1136.7 67.7103 1143.27 76.5642 1152.12 81.1354C1160.98 85.7065 1188.39 98.8431 1194.96 102.558C1201.53 106.268 1216.38 112.552 1222.66 115.126C1228.94 117.696 1229.8 116.551 1233.8 121.122C1237.8 125.693 1278.35 170.251 1279.49 170.251C1279.97 170.251 1280.05 243.071 1279.97 327.559Z" fill="#C9C9D7"/>
<path d="M1279.57 553.564V596H1044.75C1044.75 596 956.794 510.147 952.224 507.413C947.653 504.676 902.532 485.014 886.54 478.157C870.549 471.305 849.419 436.458 847.133 419.89C844.848 403.323 828.284 354.767 828.284 354.767L812.865 305.638H819.432L889.97 381.044C889.97 381.044 903.392 386.188 910.532 391.611C917.667 397.039 1032.19 497.582 1034.76 498.151C1037.32 498.723 1094.16 499.58 1094.16 499.58C1094.16 499.58 1089.87 553.564 1094.16 553.564H1279.57Z" fill="#E9E9F2"/>
<path d="M1044.75 583.268H477.312L712.057 356.768H749.432L800.583 305.638H812.865L828.284 354.767C828.284 354.767 844.848 403.323 847.133 419.89C849.419 436.458 870.549 471.305 886.54 478.157C902.532 485.014 947.653 504.676 952.224 507.413C956.794 510.147 1044.75 583.268 1044.75 583.268Z" fill="#EFF1F5"/>
<path d="M1179.31 445.471C1151.35 445.996 1086.02 446.241 1075.31 444.451C1061.6 442.165 1063.02 410.748 1063.02 410.748L1020.38 306.21C1021.91 306.021 1026.47 304.781 1028.76 308.208C1031.04 311.638 1074.45 355.624 1078.16 360.479C1081.87 365.334 1102.44 389.042 1107.01 389.899C1111.57 390.755 1126.71 389.042 1129.85 391.328C1132.66 393.376 1170.02 412.595 1179.31 445.471Z" fill="#D1D0DF"/>
<path d="M1279.57 511.86V583.268H1279.49C1279.49 583.268 1279.52 572.15 1279.57 553.564H1094.16C1089.87 553.564 1094.16 499.58 1094.16 499.58C1094.16 499.58 1037.32 498.723 1034.76 498.151C1032.19 497.583 917.667 397.039 910.532 391.612C903.392 386.188 889.97 381.045 889.97 381.045L913.957 367.908H927.092C927.092 367.908 945.368 349.055 947.653 347.91C949.939 346.77 981.922 337.627 981.922 337.627L993.726 325.825L993.799 325.769L993.885 325.705L1020.38 306.21L1063.02 410.748C1063.02 410.748 1061.6 442.165 1075.31 444.451C1078.17 444.933 1084.92 445.208 1093.82 445.35L1093.87 445.471H1179.31C1180.3 448.979 1180.98 452.638 1181.25 456.451C1184.11 495.865 1220.66 483.301 1234.37 495.865C1248.08 508.434 1245.05 510.715 1262.36 511.292C1276.62 511.765 1279.13 511.847 1279.57 511.86Z" fill="#ECEDF6"/>
<path d="M1279.57 445.471V511.86C1279.13 511.847 1276.62 511.765 1262.36 511.292C1245.05 510.715 1248.08 508.434 1234.37 495.865C1220.66 483.301 1184.11 495.865 1181.25 456.451C1180.98 452.637 1180.3 448.979 1179.31 445.471H1279.57Z" fill="#D1D0DF"/>
<path d="M0 445.467V471.908C1.6224 471.641 3.28353 471.503 4.97909 471.503C23.4323 471.503 38.391 487.847 38.391 508.008V595.996H58.8582V508.008C58.8582 487.847 73.817 471.503 92.2702 471.503C110.723 471.503 125.682 487.847 125.682 508.008V595.996H146.149V508.008C146.149 487.847 161.108 471.503 179.561 471.503C198.014 471.503 212.973 487.847 212.973 508.008V595.996H233.44V508.008C233.44 487.847 248.399 471.503 266.852 471.503C285.306 471.503 300.264 487.847 300.264 508.008V595.996H320.732V508.008C320.732 487.847 335.69 471.503 354.144 471.503C372.597 471.503 387.555 487.847 387.555 508.008V595.996H408.023V508.008C408.023 487.847 422.981 471.503 441.435 471.503C459.888 471.503 474.847 487.847 474.847 508.008V595.996H495.314V508.008C495.314 487.847 510.273 471.503 528.726 471.503C547.179 471.503 562.138 487.847 562.138 508.008V595.996H582.605V508.008C582.605 487.847 597.564 471.503 616.017 471.503C634.47 471.503 649.429 487.847 649.429 508.008V595.996H669.896V508.008C669.896 487.847 684.855 471.503 703.308 471.503C721.761 471.503 736.72 487.847 736.72 508.008V595.996H757.187V508.008C757.187 487.847 772.146 471.503 790.599 471.503C809.052 471.503 824.011 487.847 824.011 508.008V595.996H844.478V508.008C844.478 487.847 859.437 471.503 877.89 471.503C896.343 471.503 911.302 487.847 911.302 508.008V595.996H931.769V508.008C931.769 487.847 946.728 471.503 965.181 471.503C983.634 471.503 998.593 487.847 998.593 508.008V595.996H1019.06V508.008C1019.06 487.847 1034.02 471.503 1052.47 471.503C1070.93 471.503 1085.88 487.847 1085.88 508.008V595.996H1106.35V508.008C1106.35 487.847 1121.31 471.503 1139.76 471.503C1158.22 471.503 1173.18 487.847 1173.18 508.008V595.996H1193.64V508.008C1193.64 487.847 1208.6 471.503 1227.05 471.503C1245.51 471.503 1260.47 487.847 1260.47 508.008V595.996H1279.57V445.467H0Z" fill="url(#paint0_linear_101_93)"/>
<path d="M1119.43 0H1117.43V57.2124H1119.43V0Z" fill="#DDDDDD"/>
<path d="M1154.27 0H1117.43V33.4184H1154.27V0Z" fill="#F93D48"/>
<path d="M1145.56 13.2828H1139.28V6.99854H1132.42V13.2828H1126.14V20.1352H1132.42V26.4194H1139.28V20.1352H1145.56V13.2828Z" fill="#FFFDFD"/>
<path d="M1119.43 0H1117.43V33.4184H1119.43V0Z" fill="#EF2034"/>
<path d="M817.965 51.0489H815.383V43.0559H812.293V40.4733H815.383V31.189H822.41C825.681 31.189 828.34 33.849 828.34 37.1203C828.34 40.3915 825.681 43.0515 822.41 43.0515H817.965V51.0446V51.0489ZM817.965 40.4733H822.41C824.256 40.4733 825.758 38.9711 825.758 37.1246C825.758 35.278 824.256 33.7758 822.41 33.7758H817.965V40.4776V40.4733Z" fill="white"/>
<path d="M821.911 44.6138H812.297V47.1963H821.911V44.6138Z" fill="white"/>
<path d="M387.9 596V553.448H434.967V517.06H536.343V486.452H591.556V463.82H715.564V517.06H740.907V506.372H802.459V517.06H812.418V596H840.476V453.86H942.76V538.056H1045.95V520.856H1060.43V509.992H1133.75V519.5H1146.42V552.996H1194.39V596H387.9Z" fill="#F7F6F9"/>
<path d="M424.406 564.411H400.672V595.996H424.406V564.411Z" fill="#D0CFD8"/>
<path d="M459.888 529.004H445.476V596H459.888V529.004Z" fill="#EBEAF1"/>
<path d="M525.059 529.004H510.647V596H525.059V529.004Z" fill="#EBEAF1"/>
<path d="M559.375 498.732H547.463V596H559.375V498.732Z" fill="#EBEAF1"/>
<path d="M580.896 498.732H568.985V596H580.896V498.732Z" fill="#EBEAF1"/>
<path d="M618.108 474.684H606.196V596H618.108V474.684Z" fill="#EBEAF1"/>
<path d="M700.476 474.684H688.564V596H700.476V474.684Z" fill="#EBEAF1"/>
<path d="M737.589 529.404H725.677V596H737.589V529.404Z" fill="#EBEAF1"/>
<path d="M759.313 529.404H747.401V596H759.313V529.404Z" fill="#EBEAF1"/>
<path d="M781.037 529.404H769.125V596H781.037V529.404Z" fill="#EBEAF1"/>
<path d="M802.761 529.404H790.849V596H802.761V529.404Z" fill="#EBEAF1"/>
<path d="M678.283 474.684H627.468V596H678.283V474.684Z" fill="#EBEAF1"/>
<path d="M503.142 554.352H469.915V595.996H503.142V554.352Z" fill="#D0CFD8"/>
<path d="M670.662 554.352H637.435V595.996H670.662V554.352Z" fill="#D0CFD8"/>
<path d="M840.476 554.352H812.585V595.996H840.476V554.352Z" fill="#D0CFD8"/>
<path d="M481.13 529.004H469.915V540.221H481.13V529.004Z" fill="#EBEAF1"/>
<path d="M501.498 529.004H490.283V540.221H501.498V529.004Z" fill="#EBEAF1"/>
<path d="M648.65 487.515H637.435V498.732H648.65V487.515Z" fill="#D0CFD8"/>
<path d="M670.163 487.515H658.948V498.732H670.163V487.515Z" fill="#D0CFD8"/>
<path d="M648.65 508.459H637.435V519.676H648.65V508.459Z" fill="#D0CFD8"/>
<path d="M670.163 508.459H658.948V519.676H670.163V508.459Z" fill="#D0CFD8"/>
<path d="M648.65 529.404H637.435V540.621H648.65V529.404Z" fill="#D0CFD8"/>
<path d="M670.163 529.404H658.948V540.621H670.163V529.404Z" fill="#D0CFD8"/>
<path d="M863.857 468.934H851.945V596H863.857V468.934Z" fill="#EBEAF1"/>
<path d="M1070.23 529.404H1058.32V596H1070.23V529.404Z" fill="#EBEAF1"/>
<path d="M1093.77 529.404H1081.86V596H1093.77V529.404Z" fill="#EBEAF1"/>
<path d="M1114.59 529.404H1102.68V596H1114.59V529.404Z" fill="#EBEAF1"/>
<path d="M1134.95 529.404H1123.04V596H1134.95V529.404Z" fill="#EBEAF1"/>
<path d="M1185.52 564.742H1154.27V596H1185.52V564.742Z" fill="#D0CFD8"/>
<path d="M927.655 468.934H915.743V596H927.655V468.934Z" fill="#EBEAF1"/>
<path d="M906.413 554.352H873.187V595.996H906.413V554.352Z" fill="#D0CFD8"/>
<path d="M975.458 554.352H955.103V595.996H975.458V554.352Z" fill="#D0CFD8"/>
<path d="M995.813 554.352H975.458V595.996H995.813V554.352Z" fill="#D0CFD8"/>
<path d="M1016.17 554.352H995.813V595.996H1016.17V554.352Z" fill="#D0CFD8"/>
<path d="M1036.52 554.352H1016.17V595.996H1036.52V554.352Z" fill="#D0CFD8"/>
<path d="M884.401 487.515H873.187V498.732H884.401V487.515Z" fill="#D0CFD8"/>
<path d="M905.914 487.515H894.699V498.732H905.914V487.515Z" fill="#D0CFD8"/>
<path d="M884.401 469.076H873.187V480.293H884.401V469.076Z" fill="#D0CFD8"/>
<path d="M905.914 469.076H894.699V480.293H905.914V469.076Z" fill="#D0CFD8"/>
<path d="M884.401 508.459H873.187V519.676H884.401V508.459Z" fill="#D0CFD8"/>
<path d="M905.914 508.459H894.699V519.676H905.914V508.459Z" fill="#D0CFD8"/>
<path d="M884.401 529.404H873.187V540.621H884.401V529.404Z" fill="#D0CFD8"/>
<path d="M905.914 529.404H894.699V540.621H905.914V529.404Z" fill="#D0CFD8"/>
<path d="M518.436 155.595C518.436 155.595 528.145 151.597 533.287 152.169C538.43 152.742 541.856 153.198 549.851 152.113C557.847 151.028 559.56 154.399 563.558 153.856C567.556 153.314 568.696 153.882 576.696 149.315C584.696 144.749 596.113 140.177 606.967 145.889C617.82 151.601 621.246 141.318 626.956 145.889C632.667 150.46 641.235 137.13 649.803 143.225C658.371 149.32 679.501 137.879 686.357 141.598C693.212 145.317 697.778 132.357 713.77 140.836C729.761 149.315 732.619 147.602 740.042 151.033C747.466 154.463 762.317 141.327 776.023 146.75C789.73 152.173 781.734 149.888 802.296 151.601L822.858 153.314L518.436 155.6V155.595Z" fill="url(#paint1_linear_101_93)"/>
<path d="M1279.57 236.352V238.857L1052.75 240.561C1052.75 240.561 1062.46 236.563 1067.6 237.135C1072.74 237.703 1076.16 238.164 1084.16 237.079C1092.16 235.99 1093.87 239.365 1097.87 238.818C1101.87 238.276 1103.01 238.848 1111 234.277C1119 229.706 1130.43 225.139 1141.27 230.851C1152.13 236.563 1155.55 226.28 1161.27 230.851C1166.98 235.418 1175.55 222.092 1184.11 228.182C1192.68 234.277 1213.81 222.836 1220.66 226.56C1227.52 230.278 1232.09 217.314 1248.08 225.798C1264.07 234.277 1266.93 232.564 1274.35 235.99C1275.83 236.67 1277.59 236.696 1279.57 236.352Z" fill="url(#paint2_linear_101_93)"/>
<path d="M1129.85 391.328C1132.66 393.376 1170.02 412.595 1179.31 445.471C1151.35 445.996 1075.31 445.471 1075.31 445.471" fill="#D1D0DF"/>
</g>
<defs>
<linearGradient id="paint0_linear_101_93" x1="0" y1="520.736" x2="1279.57" y2="520.736" gradientUnits="userSpaceOnUse">
<stop stop-color="#F9F9F9"/>
<stop offset="1" stop-color="#C5C7D8"/>
</linearGradient>
<linearGradient id="paint1_linear_101_93" x1="518.436" y1="146.746" x2="822.858" y2="146.746" gradientUnits="userSpaceOnUse">
<stop stop-color="#F9F9F9"/>
<stop offset="1" stop-color="#C5C7D8"/>
</linearGradient>
<linearGradient id="paint2_linear_101_93" x1="1052.75" y1="231.707" x2="1279.57" y2="231.707" gradientUnits="userSpaceOnUse">
<stop stop-color="#F9F9F9"/>
<stop offset="1" stop-color="#C5C7D8"/>
</linearGradient>
<clipPath id="clip0_101_93">
<rect width="1280" height="596" fill="white"/>
</clipPath>
</defs>
</svg>
