<svg width="36" height="34" viewBox="0 0 36 34" fill="none" xmlns="http://www.w3.org/2000/svg">
<path d="M4.0743 7.97581H31.9098V4.35281H4.0743V7.97581ZM0 4.35281C0 3.13031 0.39296 2.09922 1.17888 1.25955C1.96477 0.419851 2.92991 0 4.0743 0H31.9098C33.0585 0 34.0274 0.419851 34.8164 1.25955C35.6055 2.09922 36 3.13031 36 4.35281V15.1728H4.0743V26.7123H9.50975C10.0719 26.7123 10.5442 26.9264 10.9267 27.3546C11.3091 27.7829 11.5004 28.2896 11.5004 28.875C11.5004 29.5003 11.3006 30.0288 10.9011 30.4605C10.5015 30.8923 10.0096 31.1081 9.42525 31.1081H4.0743C2.92991 31.1081 1.96477 30.684 1.17888 29.8358C0.39296 28.9876 0 27.9664 0 26.7723V4.35281ZM23.3963 28.935L31.8265 19.9805C32.2076 19.5743 32.6571 19.3805 33.1751 19.3989C33.6932 19.4174 34.1447 19.6273 34.5299 20.0285C34.9327 20.4568 35.1295 20.9604 35.1201 21.5393C35.1107 22.1183 34.9231 22.5989 34.5574 22.9812L24.8205 33.3607C24.4369 33.7869 23.9657 34 23.4068 34C22.8479 34 22.3682 33.7869 21.9678 33.3607L17.0209 28.0709C16.6393 27.6763 16.4524 27.1946 16.4604 26.6257C16.4683 26.0569 16.6744 25.5547 17.0786 25.119C17.4508 24.7172 17.9076 24.5164 18.449 24.5164C18.9903 24.5164 19.4542 24.721 19.8406 25.1302L23.3963 28.935ZM4.0743 4.35281V26.7123V21.0628V24.7836V4.35281Z" fill="black"/>
</svg>
