<svg width="48" height="48" viewBox="0 0 48 48" fill="none" xmlns="http://www.w3.org/2000/svg">
<g id="_&#195;&#142;&#195;&#147;&#195;&#136;_2" clip-path="url(#clip0_46_157)">
<path id="Vector" d="M33.5897 18.0019C33.6551 18.0128 33.72 18.0235 33.7844 18.0342C34.0849 18.0839 34.3762 18.1321 34.6658 18.1912C37.2873 18.7313 39.8694 19.4138 42.2114 20.7488M33.5897 18.0019L24.835 47.8232L24.8331 47.8214L24.7599 47.7481H24.6563H24.6354M33.5897 18.0019C33.5884 17.9821 33.5871 17.9624 33.5858 17.9427L33.3364 17.9587L33.2935 18.205C33.3135 18.2085 33.3335 18.212 33.3533 18.2154C33.3727 18.503 33.3931 18.7855 33.4132 19.0643C33.4674 19.8177 33.5198 20.5438 33.5464 21.27C33.7001 25.4794 33.5295 29.67 32.8113 33.8287L33.5897 18.0019ZM42.2114 20.7488L42.3352 20.5316C39.9578 19.1764 37.3439 18.4877 34.7163 17.9464L34.7159 17.9463C34.4217 17.8862 34.1223 17.8367 33.8191 17.7865C33.6733 17.7624 33.5267 17.7381 33.3792 17.7125L33.0664 17.658L33.0869 17.9748C33.1115 18.3559 33.1381 18.7256 33.1642 19.0878C33.2183 19.8386 33.2701 20.5574 33.2965 21.2791C33.4498 25.4759 33.2795 29.6486 32.565 33.7862L32.565 33.7862C32.0398 36.8306 31.3078 39.8022 29.9558 42.5709L29.9558 42.571C28.78 44.9799 27.3705 47.0656 24.6354 47.7481M42.2114 20.7488C43.0402 21.2213 43.8315 21.8231 44.4991 22.5037M42.2114 20.7488L42.3352 20.5316C43.1831 21.0149 43.9929 21.6307 44.6774 22.3285M24.6354 47.7481H23.3742M24.6354 47.7481H23.3742M23.3742 47.7481C20.6374 47.0638 19.2207 44.9815 18.0443 42.5674L18.0442 42.5673C16.694 39.7984 15.9583 36.8267 15.437 33.7828C15.4345 33.7682 15.432 33.7537 15.4296 33.7395C15.396 33.5429 15.3678 33.378 15.333 33.248C15.2951 33.1061 15.2412 32.9711 15.1347 32.8627C15.0277 32.7539 14.8938 32.6985 14.7534 32.6596C14.6262 32.6244 14.4653 32.5957 14.2748 32.5617L23.3742 47.7481ZM44.4991 22.5037L14.2276 32.5533C10.6902 31.9192 7.25199 31.0571 4.13438 29.2512L4.13428 29.2511C3.09395 28.6491 2.16134 27.9248 1.40109 26.9955M44.4991 22.5037C45.4498 23.4713 45.416 24.4219 44.5479 25.47C43.54 26.6858 42.1868 27.3843 40.7051 28.066M44.4991 22.5037L44.6776 22.3287C44.6775 22.3286 44.6775 22.3286 44.6774 22.3285M44.4991 22.5037L44.6774 22.3285M44.4991 22.5037L40.7051 28.066M44.6774 22.3285C45.182 22.8421 45.4534 23.3807 45.4556 23.9557C45.4577 24.5261 45.1946 25.0811 44.7404 25.6295L44.7403 25.6295C43.5994 27.0059 42.0362 27.7369 40.404 28.4782L39.6748 28.8095L40.0861 28.1222C40.1479 28.0191 40.1979 27.9372 40.2406 27.8673C40.304 27.7634 40.3514 27.6858 40.3972 27.6041M40.3972 27.6041C40.6913 27.0735 40.5469 26.4167 40.084 26.0859L40.0837 26.0857C39.5682 25.7161 38.896 25.788 38.541 26.272M40.3972 27.6041C40.3972 27.6042 40.3971 27.6043 40.397 27.6044L40.6157 27.7256M40.3972 27.6041C40.3973 27.6039 40.3974 27.6037 40.3975 27.6035L40.6157 27.7256M38.541 26.272C37.5754 27.5912 36.6344 28.9324 35.7311 30.2938L35.731 30.2939C35.3372 30.8869 35.6074 31.6723 36.3068 31.9248M38.541 26.272L38.3392 26.1244M38.541 26.272C38.5409 26.2721 38.5409 26.2721 38.5409 26.2722L38.3392 26.1244M36.3068 31.9248C37.8149 32.4673 39.3348 32.9783 40.863 33.4708M36.3068 31.9248L36.2222 32.16M36.3068 31.9248C36.3069 31.9248 36.307 31.9248 36.307 31.9248L36.2222 32.16M40.863 33.4708C41.4335 33.6538 42.0372 33.3275 42.246 32.7433L42.2461 32.7431C42.448 32.1803 42.1835 31.5596 41.6129 31.3001L41.6114 31.2994C41.5363 31.2646 41.4651 31.2374 41.3821 31.2057C41.3337 31.1872 41.2813 31.1671 41.2217 31.1432L40.7123 30.9381L41.2015 30.6885C41.4709 30.5511 41.7374 30.4179 42.0012 30.286C42.5622 30.0055 43.1115 29.7308 43.6533 29.4339L43.6534 29.4338C44.6664 28.8797 45.5713 28.188 46.3397 27.3284L46.3399 27.3282C47.2985 26.2584 47.7587 25.0929 47.7472 23.9472C47.7357 22.8016 47.2524 21.6469 46.2706 20.5991L46.2705 20.599C44.8532 19.085 43.0472 18.164 41.1189 17.3901M40.863 33.4708C40.8629 33.4708 40.8628 33.4707 40.8627 33.4707L40.7863 33.7087M40.863 33.4708L40.7863 33.7087M41.1189 17.3901C38.6234 16.3906 36.0177 15.7794 33.3587 15.3537M41.1189 17.3901C41.1189 17.3902 41.119 17.3902 41.119 17.3902L41.212 17.1581M41.1189 17.3901L41.212 17.1581M33.3587 15.3537C33.1825 15.3258 33.0039 15.2789 32.8654 15.1512C32.7232 15.02 32.6628 14.8412 32.6303 14.6453L32.6302 14.6449C32.107 11.459 31.3543 8.35192 29.9643 5.44027M33.3587 15.3537C33.3589 15.3538 33.359 15.3538 33.3592 15.3538L33.3982 15.1069M33.3587 15.3537L33.3982 15.1069M29.9643 5.44027C29.3686 4.19326 28.67 3.02935 27.7157 2.04953M29.9643 5.44027L30.1899 5.3325L29.9642 5.44021C29.9643 5.44023 29.9643 5.44025 29.9643 5.44027ZM27.7157 2.04953C26.5099 0.812897 25.2027 0.229267 23.927 0.249268C22.6512 0.269268 21.3613 0.893745 20.1917 2.16431M27.7157 2.04953L27.8947 1.875L27.7156 2.04943C27.7156 2.04947 27.7157 2.0495 27.7157 2.04953ZM20.1917 2.16431C18.9975 3.46295 18.1877 5.00393 17.4927 6.63951M20.1917 2.16431C20.1918 2.16429 20.1918 2.16426 20.1918 2.16423L20.0078 1.995L20.1917 2.16431ZM17.4927 6.63951C17.4272 6.79487 17.3619 6.94971 17.2686 7.17548L17.0447 7.71732L16.8087 7.18062C16.7765 7.10743 16.7485 7.04306 16.723 6.98452C16.6714 6.86616 16.6302 6.77155 16.586 6.67572M17.4927 6.63951C17.4928 6.63935 17.4929 6.63918 17.493 6.63902L17.2626 6.54187L17.4927 6.63963C17.4927 6.63959 17.4927 6.63955 17.4927 6.63951ZM16.586 6.67572C16.3048 6.07404 15.6898 5.82388 15.1084 6.04934L15.1081 6.04947C14.5491 6.26528 14.2312 6.89086 14.4309 7.46257L14.4309 7.46271C14.959 8.97748 15.5073 10.4838 16.0909 11.9765L16.091 11.9767C16.3627 12.6735 17.1603 12.9115 17.7823 12.4726M16.586 6.67572C16.586 6.67575 16.5861 6.67579 16.5861 6.67583L16.8126 6.57M16.586 6.67572C16.5859 6.6754 16.5857 6.67509 16.5856 6.67477L16.8126 6.57M17.7823 12.4726C19.0805 11.5561 20.3568 10.6092 21.6229 9.64661M17.7823 12.4726C17.7822 12.4726 17.7822 12.4726 17.7822 12.4726L17.9264 12.6769L17.7823 12.4726ZM21.6229 9.64661C22.1236 9.26572 22.2107 8.60046 21.871 8.09766M21.6229 9.64661C21.6229 9.64662 21.6229 9.64664 21.6228 9.64665L21.7742 9.84562L21.6229 9.64661ZM21.871 8.09766C21.5387 7.60693 20.8946 7.45077 20.329 7.75191M21.871 8.09766L22.078 7.9575L21.8709 8.09751C21.8709 8.09756 21.8709 8.09761 21.871 8.09766ZM20.329 7.75191C20.3212 7.75611 20.3131 7.7606 20.3046 7.76533C20.2129 7.81606 20.0749 7.8925 19.8391 7.8925H19.4361L19.615 7.53149C19.7041 7.35184 19.791 7.16258 19.8797 6.96945C20.0881 6.5156 20.3063 6.04041 20.5849 5.61849L20.7935 5.75625M20.329 7.75191C20.329 7.7519 20.3291 7.75187 20.3291 7.75186L20.2103 7.53188L20.328 7.75245C20.3283 7.75227 20.3287 7.75209 20.329 7.75191ZM20.7935 5.75625L20.5849 5.61848C21.1066 4.8285 21.668 4.01635 22.3534 3.33297M20.7935 5.75625C21.3148 4.96687 21.8642 4.17375 22.5299 3.51M20.7935 5.75625C20.5259 6.16159 20.3212 6.60743 20.1166 7.05325C20.0675 7.16013 20.0185 7.26702 19.9686 7.37334C19.9397 7.38351 19.9006 7.3925 19.8391 7.3925L22.5299 3.51M22.3534 3.33297C22.8637 2.82365 23.4002 2.54903 23.9746 2.5482C24.544 2.54738 25.0976 2.81609 25.6445 3.2777L25.6447 3.27785C26.5198 4.01787 27.1154 4.96312 27.6196 5.93348L27.6196 5.93354C29.0035 8.59852 29.7215 11.4655 30.2462 14.3711M22.3534 3.33297C22.3533 3.333 22.3533 3.33302 22.3533 3.33305L22.5299 3.51M22.3534 3.33297L22.5299 3.51M30.2462 14.3711C30.2574 14.4297 30.256 14.4831 30.2545 14.5211C30.254 14.533 30.2535 14.5441 30.253 14.5548C30.2517 14.583 30.2505 14.6091 30.2505 14.6438V14.9102L29.9846 14.8932C29.2497 14.8464 28.5373 14.8014 27.8248 14.7564M30.2462 14.3711C30.2461 14.3705 30.246 14.3699 30.2459 14.3694L30.0151 14.414L29.7505 14.6278M30.2462 14.3711C30.2463 14.3716 30.2464 14.372 30.2465 14.3724L30.0151 14.4142L30.0005 14.6438H29.7505C29.7505 14.6384 29.7505 14.6331 29.7505 14.6278M27.8248 14.7564C23.7115 14.5005 19.6165 14.6351 15.5374 15.2212C12.3265 15.6825 9.19199 16.3946 6.21513 17.6692L6.21501 17.6692C4.59933 18.36 3.10128 19.209 1.86498 20.4506M27.8248 14.7564L27.8403 14.5069M27.8248 14.7564C27.8247 14.7564 27.8246 14.7564 27.8245 14.7564L27.8403 14.5069M1.86498 20.4506C1.04853 21.2723 0.530829 22.252 0.25 23.3743M1.86498 20.4506L1.68763 20.2744M1.86498 20.4506C1.86492 20.4506 1.86485 20.4507 1.86479 20.4508L1.68763 20.2744M0.25 23.3743V24.622M0.25 23.3743V23.3438H0M0.25 23.3743C0.247569 23.384 0.245156 23.3937 0.242761 23.4035L0 23.3438M0.25 24.622C0.495406 25.4965 0.834355 26.3002 1.40109 26.9955M0.25 24.622C0.246952 24.6112 0.243919 24.6003 0.2409 24.5894L0 24.6562M0.25 24.622V24.6562H0M1.40109 26.9955L1.20759 27.1537M1.40109 26.9955C1.40118 26.9956 1.40127 26.9957 1.40136 26.9958L1.20759 27.1537M1.20759 27.1537C0.603797 26.4131 0.25127 25.5619 0 24.6562M1.20759 27.1537C1.99141 28.1119 2.94961 28.8544 4.00906 29.4675L0 24.6562M0 24.6562V23.3438M0 24.6562V23.3438M0 23.3438C0.288773 22.17 0.828815 21.1388 1.68763 20.2744M0 23.3438L1.68763 20.2744M1.68763 20.2744C2.95523 19.0013 4.48535 18.1369 6.11673 17.4394M1.68763 20.2744L6.11673 17.4394M6.11673 17.4394C9.12071 16.1531 12.2785 15.4369 15.5018 14.9738C19.599 14.385 23.7112 14.25 27.8403 14.5069M6.11673 17.4394L29.7505 14.6278M27.8403 14.5069C28.4718 14.5468 29.1033 14.5866 29.7505 14.6278M22.5299 3.51C23.4918 2.55 24.4369 2.58562 25.4832 3.46875L22.5299 3.51ZM16.8126 6.57C16.8413 6.63229 16.869 6.69457 16.8988 6.76236L15.8581 12.0675C15.2731 10.5713 14.7236 9.06187 14.1949 7.545C13.9473 6.83625 14.343 6.07688 15.018 5.81625C15.7287 5.54063 16.4788 5.85563 16.8126 6.57ZM33.3982 15.1069C36.0684 15.5344 38.6936 16.1494 41.212 17.1581M33.3982 15.1069C33.0663 15.0544 32.9351 14.955 32.8769 14.6044L41.212 17.1581M41.212 17.1581C43.1509 17.9362 44.9979 18.8737 46.453 20.4281M41.212 17.1581L46.453 20.4281M46.453 20.4281C48.4875 22.5994 48.5119 25.2787 46.5261 27.495C45.7367 28.3781 44.8085 29.0869 43.7734 29.6531C43.2275 29.9523 42.6711 30.2305 42.1078 30.5122C41.944 30.5941 41.7796 30.6763 41.6147 30.7594C41.5893 30.7495 41.5639 30.7398 41.5389 30.7302C41.4937 30.7128 41.4497 30.696 41.4085 30.6793L41.3151 30.9113L41.4287 31.134C41.4947 31.1003 41.5607 31.0668 41.6268 31.0334C41.657 31.0459 41.6869 31.0588 41.7164 31.0725C42.4008 31.3838 42.729 32.1375 42.4814 32.8275C42.232 33.525 41.4989 33.9375 40.7863 33.7087M46.453 20.4281L36.2222 32.16M40.7863 33.7087C39.2562 33.2156 37.7336 32.7037 36.2222 32.16M36.2222 32.16C35.3803 31.8562 35.0334 30.8925 35.5228 30.1556M36.2222 32.16L35.5228 30.1556M35.5228 30.1556C36.4285 28.7906 37.3717 27.4463 38.3392 26.1244M35.5228 30.1556L40.2294 25.8825M38.3392 26.1244C38.7874 25.5131 39.62 25.4456 40.2294 25.8825M40.2294 25.8825C40.8013 26.2913 40.9682 27.09 40.6157 27.7256M40.2294 25.8825L40.531 27.8708M40.6157 27.7256C40.5892 27.773 40.5616 27.8199 40.531 27.8708M40.7051 28.066C40.6907 28.0896 40.6757 28.1142 40.66 28.1399C40.6174 28.2096 40.5698 28.2878 40.5152 28.379L40.3006 28.2506M40.7051 28.066L40.3006 28.2506M40.3006 28.2506L40.1973 28.023C40.3094 27.9721 40.4207 27.9214 40.531 27.8708M40.3006 28.2506L40.531 27.8708M17.7362 33.5706H17.6895V33.3206V33.3187L17.9395 33.293V33.0706H17.9405H17.9415H17.9425H17.9435H17.9444H17.9454H17.9464H17.9473H17.9483H17.9493H17.9502H17.9512H17.9521H17.9531H17.954H17.955H17.9559H17.9569H17.9578H17.9588H17.9597H17.9606H17.9615H17.9625H17.9634H17.9643H17.9652H17.9661H17.9671H17.968H17.9689H17.9698H17.9707H17.9716H17.9725H17.9734H17.9742H17.9751H17.976H17.9769H17.9778H17.9787H17.9795H17.9804H17.9813H17.9821H17.983H17.9839H17.9847H17.9856H17.9865H17.9873H17.9882H17.989H17.9898H17.9907H17.9915H17.9924H17.9932H17.994H17.9949H17.9957H17.9965H17.9973H17.9982H17.999H17.9998H18.0006H18.0014H18.0022H18.003H18.0038H18.0046H18.0054H18.0062H18.007H18.0078H18.0086H18.0094H18.0102H18.011H18.0117H18.0125H18.0133H18.0141H18.0148H18.0156H18.0164H18.0171H18.0179H18.0186H18.0194H18.0202H18.0209H18.0217H18.0224H18.0231H18.0239H18.0246H18.0254H18.0261H18.0268H18.0276H18.0283H18.029H18.0298H18.0305H18.0312H18.0319H18.0326H18.0333H18.0341H18.0348H18.0355H18.0362H18.0369H18.0376H18.0383H18.039H18.0397H18.0404H18.0411H18.0417H18.0424H18.0431H18.0438H18.0445H18.0451H18.0458H18.0465H18.0472H18.0478H18.0485H18.0492H18.0498H18.0505H18.0512H18.0518H18.0525H18.0531H18.0538H18.0544H18.0551H18.0557H18.0564H18.057H18.0576H18.0583H18.0589H18.0595H18.0602H18.0608H18.0614H18.062H18.0627H18.0633H18.0639H18.0645H18.0651H18.0658H18.0664H18.067H18.0676H18.0682H18.0688H18.0694H18.07H18.0706H18.0712H18.0718H18.0724H18.073H18.0736H18.0741H18.0747H18.0753H18.0759H18.0765H18.077H18.0776H18.0782H18.0788H18.0793H18.0799H18.0805H18.081H18.0816H18.0822H18.0827H18.0833H18.0838H18.0844H18.0849H18.0855H18.086H18.0866H18.0871H18.0877H18.0882H18.0888H18.0893H18.0898H18.0904H18.0909H18.0914H18.092H18.0925H18.093H18.0936H18.0941H18.0946H18.0951H18.0956H18.0962H18.0967H18.0972H18.0977H18.0982H18.0987H18.0992H18.0997H18.1002H18.1007H18.1012H18.1017H18.1022H18.1027H18.1032H18.1037H18.1042H18.1047H18.1052H18.1057H18.1062H18.1067H18.1071H18.1076H18.1081H18.1086H18.1091H18.1095H18.11H18.1105H18.111H18.1114H18.1119H18.1124H18.1128H18.1133H18.1137H18.1142H18.1147H18.1151H18.1156H18.116H18.1165H18.1169H18.1174H18.1178H18.1183H18.1187H18.1192H18.1196H18.1201H18.1205H18.121H18.1214H18.1218H18.1223H18.1227H18.1231H18.1236H18.124H18.1244H18.1249H18.1253H18.1257H18.1261H18.1266H18.127H18.1274H18.1278H18.1282H18.1287H18.1291H18.1295H18.1299H18.1303H18.1307H18.1311H18.1315H18.1319H18.1324H18.1328H18.1332H18.1336H18.134H18.1344H18.1348H18.1352H18.1356H18.136H18.1363H18.1367H18.1371H18.1375H18.1379H18.1383H18.1387H18.1391H18.1395H18.1398H18.1402H18.1406H18.141H18.1414H18.1418H18.1421H18.1425H18.1429H18.1433H18.1436H18.144H18.1444H18.1447H18.1451H18.1455H18.1458H18.1462H18.1466H18.1469H18.1473H18.1477H18.148H18.1484H18.1488H18.1491H18.1495H18.1498H18.1502H18.1505H18.1509H18.1512H18.1516H18.1519H18.1523H18.1526H18.153H18.1533H18.1537H18.154H18.1544H18.1547H18.1551H18.1554H18.1558H18.1561H18.1564H18.1568H18.1571H18.1574H18.1578H18.1581H18.1585H18.1588H18.1591H18.1595H18.1598H18.1601H18.1604H18.1608H18.1611H18.1614H18.1618H18.1621H18.1624H18.1627H18.1631H18.1634H18.1637H18.164H18.1643H18.1647H18.165H18.1653H18.1656H18.1659H18.1663H18.1666H18.1669H18.1672H18.1675H18.1678H18.1681H18.1685H18.1688H18.1691H18.1694H18.1697H18.17H18.1703H18.1706H18.1709H18.1712H18.1715H18.1719H18.1722H18.1725H18.1728H18.1731H18.1734H18.1737H18.174H18.1743H18.1746H18.1749H18.1752H18.1755H18.1758H18.1761H18.1764H18.1767H18.177H18.1773H18.1776H18.1778H18.1781H18.1784H18.1787H18.179H18.1793H18.1796H18.1799H18.1802H18.1805H18.1808H18.1811H18.1814H18.1816H18.1819H18.1822H18.1825H18.1828H18.1831H18.1834H18.1837H18.1839H18.1842H18.1845H18.1848H18.1851H18.1854H18.1857H18.1859H18.1862H18.1865H18.1868H18.1871H18.1874H18.1876H18.1879H18.1882H18.1885H18.1888H18.189H18.1893H18.1896H18.1899H18.1902H18.1904H18.1907H18.191H18.1913H18.1916H18.1918H18.1921H18.1924H18.1927H18.193H18.1932H18.1935H18.1938H18.1941H18.1943H18.1946H18.1949H18.1952H18.1954H18.1957H18.196H18.1963H18.1965H18.1968H18.1971H18.1974H18.1976H18.1979H18.1982H18.1985H18.1987H18.199H18.1993H18.1996H18.1999H18.2001H18.2004H18.2007H18.2009H18.2012H18.2015H18.2018H18.202V33.0705L18.2095 33.0707C18.8779 33.0906 19.5462 33.1107 20.2144 33.1307C22.1988 33.1903 24.1823 33.2499 26.1669 33.3032C26.6509 33.3158 27.0174 33.111 27.2489 32.6809L27.2491 32.6806C27.6673 31.9063 27.1288 31.0071 26.1681 30.9944L26.1679 30.9944C25.6822 30.9876 25.1961 30.9815 24.7096 30.9755C23.1814 30.9566 21.6503 30.9376 20.1208 30.8949M17.7362 33.5706L13.417 30.0536C13.4169 30.0536 13.4169 30.0536 13.4168 30.0536M17.7362 33.5706C17.7824 33.7961 17.8272 34.0199 17.8717 34.2422C17.9858 34.8125 18.0979 35.3726 18.2267 35.9254C18.2267 35.9254 18.2267 35.9255 18.2267 35.9255L18.4702 35.8688L17.7362 33.5706ZM20.1208 30.8949C20.121 30.8949 20.1211 30.8949 20.1212 30.8949L20.1278 30.645L20.1208 30.8949ZM20.1208 30.8949C19.5274 30.8792 18.9297 30.821 18.3387 30.7635C18.0715 30.7374 17.8056 30.7115 17.542 30.6898L17.3358 30.6727L17.314 30.467C17.301 30.344 17.2852 30.2205 17.2694 30.0973C17.2361 29.8378 17.203 29.5795 17.1964 29.3297L17.1964 29.3289C17.1617 27.831 17.1302 26.3318 17.0988 24.8329C17.0726 23.5841 17.0464 22.3355 17.0183 21.0881L17.0183 21.0879C17.0126 20.8257 16.9968 20.5889 16.9225 20.3962L16.9224 20.3961C16.7326 19.9036 16.2191 19.6321 15.6839 19.7256M15.6839 19.7256C15.3887 19.7776 15.1537 19.9107 14.9914 20.1036C14.8294 20.2963 14.7267 20.5645 14.7243 20.9098M15.6839 19.7256C15.6839 19.7256 15.6839 19.7256 15.684 19.7256L15.6406 19.4794M15.6839 19.7256C15.6838 19.7256 15.6837 19.7256 15.6837 19.7256L15.6406 19.4794M14.7243 20.9098C14.7093 23.0938 14.7242 25.2782 14.7561 27.4632L14.7561 27.4635C14.7638 28.0314 14.8079 28.5944 14.8539 29.1816C14.875 29.4504 14.8964 29.7243 14.915 30.0061L14.9359 30.3239L14.6222 30.2687C14.4907 30.2456 14.3625 30.2239 14.237 30.2027C13.9532 30.1546 13.6828 30.1089 13.4168 30.0536M14.7243 20.9098L14.4743 20.9081M14.7243 20.9098C14.7243 20.9099 14.7242 20.9099 14.7242 20.9099L14.4743 20.9081M13.4168 30.0536C10.7256 29.5007 8.06741 28.7822 5.61541 27.4308L5.61537 27.4308C4.71007 26.9317 3.83556 26.3441 3.1673 25.4893L3.36401 25.335M13.4168 30.0536L3.16705 25.489M15.6406 19.4794C16.2838 19.3669 16.9194 19.6931 17.1557 20.3063L14.412 29.9787C14.4134 29.9988 14.4147 30.0189 14.4161 30.0389L14.6655 30.0225L14.7088 29.7763C14.6883 29.7727 14.6679 29.7691 14.6477 29.7656C14.6342 29.5788 14.6197 29.394 14.6054 29.2107C14.559 28.6192 14.5139 28.043 14.5061 27.4669C14.4743 25.2806 14.4593 23.0944 14.4743 20.9081M15.6406 19.4794C14.9487 19.6012 14.4799 20.1169 14.4743 20.9081M3.36401 25.335C2.63458 24.405 2.5802 23.5388 3.37151 22.665M3.36401 25.335C4.00156 26.1506 4.84163 26.7188 5.73607 27.2119L3.37151 22.665M3.36401 25.335L3.16705 25.489M3.37151 22.665C3.97156 22.005 4.68974 21.42 5.44543 20.9437L3.37151 22.665ZM3.16705 25.489C2.78296 24.9992 2.55435 24.4983 2.54751 23.9822C2.5406 23.461 2.76033 22.9674 3.18621 22.4972L3.18653 22.4968C3.80337 21.8184 4.53946 21.2192 5.31213 20.7322C7.03435 19.6466 8.95223 19.0183 10.8813 18.5083C15.7819 17.2125 20.7742 16.8271 25.8098 16.9832L25.8099 16.9833C26.8715 17.0168 27.9339 17.0842 28.9954 17.1516C29.4792 17.1823 29.9627 17.2129 30.4459 17.2404L30.6558 17.2523L30.6801 17.4611C30.6948 17.5879 30.7098 17.7087 30.7243 17.8251C30.7548 18.07 30.7828 18.2956 30.8009 18.5178C31.2374 23.7569 31.1193 28.981 30.1487 34.171L30.1487 34.171C29.6516 36.8277 28.956 39.4412 27.7126 41.8881C27.1759 42.9464 26.5473 43.986 25.5794 44.7756L3.16705 25.489Z" fill="white" stroke="black" stroke-width="0.5"/>
</g>
<defs>
<clipPath id="clip0_46_157">
<rect width="48" height="48" fill="white" transform="matrix(1 0 0 -1 0 48)"/>
</clipPath>
</defs>
</svg>
