<svg width="43" height="43" viewBox="0 0 43 43" fill="none" xmlns="http://www.w3.org/2000/svg">
<g id="_&#195;&#142;&#195;&#147;&#195;&#136;_2" clip-path="url(#clip0_46_144)">
<path id="Vector" d="M43 3.1077C42.8401 3.97777 42.2946 4.59758 41.6902 5.19723C38.8519 8.0191 36.0253 10.8544 33.1919 13.6813C33.0758 13.7972 32.9209 13.8711 32.7845 13.9652C32.8148 14.0139 32.8451 14.0609 32.8754 14.1096C33.6785 14.1096 34.4832 14.0895 35.2862 14.1147C36.4343 14.1516 37.431 14.9159 37.7744 15.9842C38.3603 17.805 37.0808 19.6005 35.0976 19.6308C32.0185 19.6778 28.9377 19.6711 25.8586 19.6476C24.3485 19.6358 23.1599 18.3156 23.1751 16.7686C23.2037 13.8862 23.2323 11.0039 23.2508 8.12324C23.2576 7.15238 23.5993 6.35117 24.3737 5.75152C25.9815 4.50688 28.4478 5.45254 28.7172 7.46649C28.835 8.34496 28.7374 9.25199 28.7374 10.1456L28.8872 10.2027C29 10.0986 29.1162 9.99945 29.2256 9.89027C32.0471 7.07176 34.8737 4.2566 37.6869 1.42801C38.3047 0.806523 38.931 0.225352 39.8098 0.00195312C40.0892 0.00195312 40.3704 0.00195312 40.6498 0.00195312C40.9091 0.0960156 41.1768 0.169922 41.4242 0.28582C42.303 0.702383 42.7525 1.4532 43.0017 2.35352V3.10938L43 3.1077ZM30.5269 17.8285V17.8066C31.9697 17.8066 33.4108 17.8083 34.8535 17.805C35.0337 17.805 35.2189 17.7932 35.3923 17.7479C35.8165 17.637 36.1077 17.2288 36.0842 16.8139C36.0589 16.3604 35.729 16.0077 35.2609 15.9523C35.0943 15.9321 34.9259 15.9338 34.7576 15.9338C33.3721 15.9388 31.9848 15.9573 30.5993 15.9489C29.8316 15.9439 29.3889 15.1964 29.7694 14.5766C29.8704 14.412 30.0185 14.2743 30.1566 14.1365C33.6397 10.6512 37.1246 7.1675 40.6077 3.68215C40.7458 3.54441 40.8822 3.40164 40.9916 3.24039C41.2407 2.8759 41.1936 2.44422 40.8906 2.12844C40.5892 1.81434 40.1532 1.75051 39.7828 1.9907C39.6212 2.09652 39.4747 2.2309 39.3367 2.36863C35.8098 5.88926 32.2845 9.41324 28.7643 12.9389C28.4343 13.2698 28.0791 13.4831 27.6061 13.2799C27.1549 13.0867 27.0421 12.7021 27.037 12.2502C27.0202 11.061 26.9916 9.8718 26.968 8.68258C26.963 8.40207 26.9731 8.11988 26.9394 7.84441C26.8805 7.35059 26.5034 7.02809 26.0286 7.03145C25.5556 7.03481 25.1734 7.36402 25.1077 7.84105C25.0842 8.00566 25.0875 8.17531 25.0859 8.34328C25.0623 11.1416 25.0421 13.9417 25.0185 16.74C25.0135 17.4136 25.4141 17.8234 26.1178 17.8268C27.5875 17.8335 29.0572 17.8285 30.5286 17.8285H30.5269Z" fill="white"/>
<path id="Vector_2" d="M2.25422 43.0004C1.63974 42.7669 1.04883 42.5082 0.61954 41.969C-0.200326 40.9411 -0.21211 39.5436 0.61954 38.5307C0.760954 38.3577 0.914153 38.1931 1.0724 38.0352C3.98149 35.126 6.89058 32.2168 9.79967 29.3075C9.91415 29.1933 10.0219 29.0741 10.1869 28.8977C9.37038 28.8977 8.63469 28.9044 7.899 28.8977C6.11954 28.8759 4.92594 27.5355 5.10607 25.7668C5.24075 24.4365 6.41752 23.385 7.90069 23.3699C10.9647 23.3379 14.0303 23.3346 17.096 23.3531C18.633 23.3631 19.83 24.68 19.8148 26.2421C19.7845 29.0539 19.7475 31.8657 19.7424 34.6758C19.7408 35.7004 19.4697 36.5739 18.6431 37.229C17.037 38.5055 14.5404 37.5649 14.2694 35.5325C14.1515 34.6557 14.2492 33.7486 14.2492 32.8551C14.1987 32.8366 14.1482 32.8181 14.0977 32.7979C13.9849 32.9021 13.8687 33.0029 13.7593 33.112C10.9377 35.9306 8.11112 38.744 5.29967 41.5726C4.68183 42.1941 4.05557 42.7753 3.17846 42.9987H2.25422V43.0004ZM17.9007 30.5539C17.9209 30.5539 17.9411 30.5539 17.9613 30.5539C17.9613 29.1833 17.9461 27.8109 17.9663 26.4403C17.9798 25.5652 17.6313 25.1722 16.7542 25.1738C13.8569 25.1806 10.9579 25.1873 8.06062 25.199C7.89563 25.199 7.72392 25.2175 7.56567 25.2645C7.14143 25.3888 6.86533 25.802 6.90742 26.2203C6.95119 26.6654 7.26432 26.9929 7.7155 27.05C7.88048 27.0702 8.05052 27.0702 8.21887 27.0702C9.59092 27.0652 10.963 27.0568 12.335 27.0517C12.7626 27.0517 13.101 27.2096 13.2761 27.6228C13.4512 28.0377 13.3165 28.3854 13.0135 28.6877C12.9344 28.7667 12.8552 28.8473 12.7761 28.9263C9.30136 32.3999 5.82661 35.8734 2.35186 39.347C1.74917 39.9501 1.67173 40.4724 2.11954 40.9041C2.55052 41.319 3.05557 41.2333 3.64648 40.6421C7.13132 37.1584 10.6162 33.6747 14.101 30.1927C14.2189 30.0735 14.335 29.9492 14.468 29.8484C15.0202 29.4318 15.7593 29.6989 15.9125 30.3742C15.9495 30.5354 15.9461 30.7067 15.9495 30.8747C15.9764 32.2319 15.9966 33.5891 16.0303 34.9463C16.0488 35.6887 16.5471 36.1036 17.2003 35.9457C17.6397 35.8399 17.899 35.4636 17.9007 34.8841C17.9074 33.4429 17.9024 32.0018 17.9024 30.5589L17.9007 30.5539Z" fill="white"/>
<path id="Vector_3" d="M41.0421 38.4779C40.9831 39.4639 40.4629 40.3339 39.4091 40.8026C38.4091 41.246 37.4411 41.1116 36.5757 40.4162C36.4225 40.2936 36.2794 40.1593 36.1414 40.0215C25.0808 28.9675 14.0236 17.9118 2.96463 6.85441C1.86531 5.75421 1.6414 4.52636 2.31817 3.3237C3.1212 1.89765 5.06059 1.51468 6.3451 2.53089C6.53029 2.6787 6.70706 2.83995 6.87541 3.00792C17.9158 14.0435 28.9528 25.0807 39.9949 36.1129C40.6145 36.731 41.0438 37.418 41.0421 38.4779ZM39.3434 38.3469C39.1279 38.0126 39.005 37.7237 38.7996 37.5188C27.6986 26.4093 16.5926 15.3066 5.48483 4.20386C4.97978 3.69995 4.45453 3.64788 4.04544 4.05101C3.63635 4.45413 3.68685 4.98323 4.1818 5.4905C4.21042 5.52073 4.24073 5.54929 4.27103 5.57952C15.3182 16.6218 26.367 27.6657 37.4141 38.7097C37.532 38.8273 37.6582 38.9398 37.7862 39.0473C38.0707 39.2858 38.4141 39.2959 38.6852 39.1044C38.936 38.928 39.1027 38.6324 39.3417 38.3469H39.3434Z" fill="white"/>
</g>
<defs>
<clipPath id="clip0_46_144">
<rect width="43" height="43" fill="white"/>
</clipPath>
</defs>
</svg>
