<svg width="44" height="44" viewBox="0 0 44 44" fill="none" xmlns="http://www.w3.org/2000/svg">
<path id="Vector" d="M8.29509 38.5284L7.94717 38.2385L7.62433 38.5561L3.36182 42.7498L3.35895 42.7527C3.02923 43.0824 2.68284 43.225 2.30313 43.225C1.92341 43.225 1.57702 43.0824 1.2473 42.7527C0.917591 42.423 0.775 42.0766 0.775 41.6969C0.775 41.3172 0.917591 40.9708 1.24731 40.6411L1.25017 40.6382L5.44392 36.3757L5.76247 36.0519L5.47068 35.7038C3.88702 33.8145 2.66283 31.7191 1.79682 29.4153C0.933622 27.1189 0.5 24.6486 0.5 22C0.5 15.9881 2.58053 10.9141 6.7473 6.7473C10.9141 2.58053 15.9881 0.5 22 0.5H43.5V22C43.5 28.0119 41.4195 33.0859 37.2527 37.2527C33.0859 41.4195 28.0119 43.5 22 43.5C19.3741 43.5 16.9073 43.0628 14.5956 42.1915C12.2761 41.3172 10.1767 40.0964 8.29509 38.5284ZM40.375 4.125V3.625H39.875H22C16.9036 3.625 12.5555 5.41445 8.98497 8.98496L9.33852 9.33852L8.98496 8.98497C5.41445 12.5555 3.625 16.9036 3.625 22C3.625 24.152 3.97811 26.2117 4.68585 28.176C5.39058 30.132 6.35562 31.8901 7.58225 33.4469L7.92976 33.888L8.32774 33.4919L23.2465 18.6419L23.2473 18.6411C23.577 18.3113 23.9234 18.1688 24.3031 18.1688C24.6828 18.1688 25.0292 18.3113 25.3589 18.6411L25.3589 18.6411L25.3629 18.645C25.6836 18.9585 25.8313 19.3103 25.8313 19.7244C25.8313 20.1389 25.6831 20.4973 25.3589 20.8214L10.5089 35.6714L10.111 36.0694L10.5531 36.4177C12.1099 37.6444 13.868 38.6094 15.824 39.3141C17.7883 40.0219 19.848 40.375 22 40.375C27.0964 40.375 31.4445 38.5855 35.015 35.015C38.5855 31.4445 40.375 27.0964 40.375 22V4.125Z" fill="white" stroke="black"/>
</svg>
