<svg width="51" height="43" viewBox="0 0 51 43" fill="none" xmlns="http://www.w3.org/2000/svg">
<g id="_&#195;&#142;&#195;&#147;&#195;&#136;_2" clip-path="url(#clip0_46_148)">
<path id="Vector" d="M50.9164 27.8705C50.5191 26.1723 49.4912 25.1419 47.7733 24.7195C47.5242 24.6582 47.2524 24.6319 46.9649 24.6056C46.8185 24.5933 46.6739 24.5793 46.5276 24.5618L46.1164 24.5109L46.0711 24.0973C46.0589 23.9922 46.0502 23.887 46.0415 23.7836C46.0241 23.5856 46.0084 23.3963 45.9735 23.2246C45.7244 21.9873 45.0257 20.9866 44.003 20.4083C42.9489 19.8107 41.6823 19.73 40.4383 20.1804C39.0392 20.6887 37.6437 21.1987 36.2464 21.7104C34.9414 22.1888 33.6364 22.6673 32.328 23.1422C32.0701 23.2351 31.6886 23.342 31.3558 23.1808C30.7495 22.8899 30.1397 22.6024 29.5281 22.3168C27.873 21.5404 26.1621 20.7378 24.5417 19.8177C20.5868 17.5762 16.7642 17.4307 12.8528 19.3725C12.1088 19.7406 11.3649 20.1577 10.6453 20.5607C10.3056 20.7518 9.96584 20.9428 9.62435 21.1286L9.22537 21.3476L8.95531 20.9814C8.54762 20.4293 8.32635 20.2015 7.96047 20.2015C7.7392 20.2015 7.46566 20.2856 7.06668 20.4311L5.62233 20.9586C4.03686 21.5369 2.45139 22.117 0.865911 22.6953C0.456475 22.8443 0.189907 23.0423 0.0749163 23.2877C-0.0400742 23.5313 -0.0226514 23.8625 0.125442 24.2726C1.04537 26.8208 1.96703 29.3707 2.89044 31.9189L3.67447 34.0832C4.64317 36.7611 5.61362 39.4372 6.58581 42.1133C6.68338 42.3797 7.06494 43.2297 7.88555 42.9405C10.1296 42.1484 12.419 41.3089 14.8825 40.3766C15.4505 40.161 15.5655 39.5914 15.4279 39.1218C15.3913 38.9973 15.3443 38.8676 15.2955 38.7292C15.2711 38.6591 15.2449 38.589 15.2206 38.5136L15.0533 38.0264L15.5342 37.8494C15.7293 37.7776 15.9192 37.7057 16.1074 37.6356C16.6179 37.4446 17.1005 37.2641 17.597 37.0958C17.8932 36.9959 18.2016 37.0205 18.4072 37.059L18.9525 37.1624C21.3255 37.6058 23.7804 38.0667 26.1917 38.5399L26.3415 38.5697C27.9618 38.8887 29.495 39.1919 31.0248 38.7537C32.0527 38.4593 33.0859 38.0808 34.0859 37.7145L34.5407 37.548C38.297 36.1793 42.1144 34.779 45.8045 33.4243L48.1775 32.555C49.6846 32.003 50.5818 30.9795 50.9216 29.4268C50.939 29.3444 50.9704 29.2761 51 29.2217V28.1299C50.9721 28.0545 50.939 27.9704 50.9164 27.8705ZM36.4659 23.7836C37.6768 23.3403 38.9173 22.8846 40.1595 22.4289C40.2554 22.3939 40.3512 22.3588 40.4453 22.3238C40.7484 22.2116 41.0603 22.0942 41.3791 21.9961C42.4106 21.6789 43.489 22.1906 43.888 23.1895C44.0953 23.7065 44.0884 24.2936 43.8706 24.8001C43.6667 25.2715 43.2991 25.6291 42.8339 25.8096C41.2903 26.4072 39.7292 26.9767 38.2169 27.5288C37.6228 27.7461 37.0339 27.9617 36.452 28.1755L35.9589 28.3577L34.572 24.4776L36.4659 23.7836ZM8.20788 40.6885L2.27541 24.3287L7.27924 22.4955L13.203 38.8589L8.20788 40.6885ZM47.681 30.5782C46.66 30.9725 45.6181 31.3528 44.6093 31.7208L43.8654 31.9925C42.7102 32.4166 41.5551 32.8337 40.4 33.2525C37.7203 34.2217 34.9501 35.2241 32.2496 36.2686C31.2129 36.67 30.1676 36.868 29.056 36.868C28.3329 36.8698 27.582 36.7856 26.7875 36.6174C24.1793 36.0689 21.5067 35.5887 18.9229 35.1225L18.172 34.9875C17.9263 34.9437 17.6022 34.9735 17.2852 35.0717C16.7189 35.2469 16.1631 35.4537 15.576 35.6745C15.3338 35.7639 15.0881 35.8568 14.8407 35.9462L14.3494 36.1249L13.8076 34.6283C13.4678 33.6942 13.135 32.7776 12.804 31.8593C12.5653 31.2038 12.3284 30.5484 12.0932 29.893C11.4294 28.0546 10.7429 26.1531 10.0512 24.2901C9.81948 23.6627 9.99545 23.2071 10.5878 22.8951C11.0565 22.6498 11.5304 22.3834 11.9886 22.1258C12.5793 21.7945 13.1891 21.451 13.8093 21.1408C16.9071 19.5828 20.0554 19.6249 22.9145 21.26C24.7073 22.287 26.6116 23.1755 28.4532 24.036C29.4079 24.4811 30.3941 24.9438 31.3575 25.4187C31.5161 25.4976 31.6764 25.5695 31.8367 25.6431C31.9987 25.7167 32.1625 25.7903 32.3228 25.8691C33.4221 26.4089 33.8786 27.6077 33.3856 28.6557C32.8907 29.7107 31.6799 30.1155 30.5718 29.5985C29.2947 29.0027 28.0193 28.4033 26.7422 27.8039C25.0923 27.0293 23.4406 26.2547 21.7872 25.4853C21.4718 25.3381 21.1983 25.2593 20.9736 25.2505C20.5572 25.2365 20.1826 25.5432 20.0658 26.0023C19.9491 26.4615 20.1512 26.9119 20.5711 27.124C21.0938 27.3886 21.6391 27.641 22.167 27.8846C22.3953 27.9897 22.6252 28.0949 22.8535 28.2018C23.5347 28.5207 24.2159 28.8397 24.8989 29.1586C26.46 29.8894 28.0751 30.6448 29.6606 31.3966C30.7896 31.9311 31.9151 31.9802 33.0998 31.5438C37.4538 29.942 41.7537 28.37 45.8794 26.8716C46.3551 26.6981 46.761 26.6245 47.1199 26.6455C48.0765 26.7016 48.8413 27.4184 48.9772 28.3875C49.1096 29.3321 48.5765 30.2329 47.681 30.5782Z" fill="white"/>
<path id="Vector_2" d="M43.7451 10.7255C42.4384 7.77772 40.6421 5.30841 38.4068 3.38589C35.1261 0.566072 31.3436 -0.499464 27.1656 0.215567C24.1201 0.736068 21.1426 2.11005 18.0605 4.41462C17.8514 4.5706 17.6475 4.75111 17.4298 4.94213C16.9315 5.38026 16.4158 5.83592 15.7711 6.04973C15.1108 6.2723 14.4069 6.22148 13.7292 6.17416C13.5567 6.16364 13.3912 6.15138 13.2309 6.14437H12.9312C12.6594 6.14437 12.3859 6.14261 12.1141 6.14086C11.5025 6.13736 10.8701 6.1321 10.2533 6.14962C9.7829 6.16364 9.39088 6.54569 9.34384 7.0364C9.29854 7.50958 9.62086 7.97225 10.0808 8.08617C10.2516 8.12998 10.4519 8.15101 10.7115 8.15101H10.8196C12.2482 8.15802 13.7257 8.16503 15.177 8.1475C15.1857 8.14575 15.1944 8.14575 15.2031 8.14575C15.6823 8.14575 16.0481 8.32451 16.3879 8.72058C20.2418 13.2211 24.8728 14.9631 30.5439 14.0465C32.429 13.7416 34.2393 13.0879 35.9328 12.4429C38.3476 11.5246 40.5115 11.437 42.5447 12.1748C42.6754 12.2221 42.8496 12.2397 42.9995 12.2204C43.3322 12.1783 43.5953 12.0101 43.7434 11.7454C43.9037 11.458 43.9054 11.0865 43.7451 10.7255ZM39.9958 9.5653C39.7222 9.6021 39.4469 9.62664 39.1804 9.65292C38.6019 9.70725 38.0549 9.75983 37.5409 9.90353C36.5077 10.1892 35.4641 10.538 34.4571 10.8744C33.9239 11.0514 33.3716 11.2355 32.8245 11.409C31.0056 11.9873 29.34 12.2765 27.765 12.2765C26.4339 12.2765 25.1672 12.0697 23.9232 11.6596C22.5329 11.1987 21.2366 10.4749 19.9648 9.44788C19.8811 9.37953 19.794 9.30067 19.6947 9.19902C19.5728 9.07284 19.5466 8.93264 19.5344 8.86429C19.5309 8.85027 19.5275 8.83274 19.5222 8.80821L19.3585 8.15451H30.3174C30.4359 8.15627 30.5474 8.15802 30.6519 8.15101C31.2704 8.10369 31.7025 7.6603 31.6781 7.09599C31.6537 6.52817 31.2269 6.14437 30.6153 6.14261C28.4131 6.1356 26.2126 6.13736 24.0121 6.13736H19.2923L20.6216 5.18398C24.2612 2.57272 28.2267 1.5247 31.7844 2.23798C35.1679 2.91271 38.1367 5.16996 40.3704 8.76439L40.8024 9.45839L39.9958 9.5653Z" fill="white"/>
</g>
<defs>
<clipPath id="clip0_46_148">
<rect width="51" height="43" fill="white"/>
</clipPath>
</defs>
</svg>
