<svg width="43" height="43" viewBox="0 0 43 43" fill="none" xmlns="http://www.w3.org/2000/svg">
<g id="_&#195;&#142;&#195;&#147;&#195;&#136;_2" clip-path="url(#clip0_46_152)">
<path id="Vector" d="M23.2646 0C23.6258 0.174687 24.024 0.300664 24.3432 0.532461C24.9849 0.999414 25.2521 1.68305 25.2605 2.46746C25.2672 3.13766 25.2605 3.80785 25.2605 4.51836C27.2614 4.97523 29.1228 5.73949 30.8801 6.8548C31.3472 6.37777 31.789 5.91082 32.246 5.45898C33.3346 4.38062 34.7727 4.3823 35.8614 5.46234C36.4376 6.03344 37.0155 6.60453 37.5834 7.18402C38.6368 8.25902 38.6317 9.64812 37.5716 10.7248C37.1113 11.1918 36.6342 11.6436 36.1991 12.0686C36.6795 13.0529 37.1684 13.9632 37.5733 14.9089C37.8791 15.6245 38.0975 16.382 38.3176 17.1311C38.4923 17.7257 38.1798 18.2515 37.6187 18.4094C37.0777 18.5605 36.5334 18.2834 36.3755 17.7039C35.8731 15.8646 35.0869 14.1648 34.0083 12.5926C33.6874 12.124 33.763 11.6503 34.1814 11.2254C34.7979 10.5955 35.4279 9.97734 36.0495 9.3525C36.404 8.99641 36.4023 8.89563 36.0395 8.52945C35.517 8.00371 34.9928 7.47797 34.467 6.95559C34.0839 6.5743 34.0335 6.57262 33.6589 6.94551C33.0541 7.54852 32.4526 8.15488 31.8461 8.75621C31.3203 9.27691 30.8852 9.33066 30.277 8.91074C28.4307 7.63922 26.4046 6.80945 24.2021 6.39457C23.4763 6.25852 23.2075 5.91754 23.2024 5.17512C23.1974 4.30672 23.1907 3.44 23.2058 2.5716C23.2125 2.19535 23.063 2.03578 22.6867 2.04082C21.8887 2.0509 21.0907 2.04922 20.2943 2.04082C19.9382 2.03746 19.7937 2.19367 19.7987 2.54977C19.8105 3.41648 19.8055 4.28488 19.8021 5.15328C19.7987 5.92426 19.5367 6.25348 18.7823 6.39793C16.5832 6.81785 14.5571 7.6493 12.7108 8.9225C12.1261 9.32562 11.6792 9.2702 11.1735 8.76965C10.557 8.15824 9.94713 7.5418 9.33224 6.93039C8.97608 6.57766 8.92064 6.57934 8.55607 6.94215C8.02015 7.47461 7.4859 8.00875 6.95334 8.54457C6.61061 8.88891 6.60893 8.99977 6.94494 9.33738C7.54638 9.94207 8.15455 10.5434 8.75432 11.1498C9.27848 11.6789 9.3356 12.1122 8.91896 12.7186C7.63878 14.578 6.8055 16.6171 6.39221 18.8327C6.26789 19.5029 5.91341 19.7901 5.22796 19.7968C4.34595 19.8052 3.46395 19.8119 2.58362 19.7934C2.17705 19.785 2.03593 19.9597 2.04265 20.3461C2.05609 21.1154 2.05609 21.8863 2.04265 22.6556C2.03593 23.0453 2.18377 23.2133 2.58698 23.2066C3.45387 23.1898 4.32243 23.1982 5.18932 23.2032C5.92685 23.2066 6.26117 23.4753 6.40061 24.2093C6.81894 26.4097 7.64886 28.4354 8.92064 30.2814C9.3356 30.8827 9.2768 31.3211 8.75264 31.8502C8.15119 32.4566 7.55478 33.0663 6.9399 33.6593C6.66102 33.928 6.62909 34.1497 6.9231 34.4302C7.48926 34.9728 8.04367 35.5254 8.58631 36.0931C8.84672 36.3652 9.04496 36.3804 9.31376 36.1015C9.94377 35.4448 10.5923 34.8065 11.2407 34.1699C11.6725 33.7466 12.1513 33.6895 12.6469 34.0338C14.1774 35.0988 15.8423 35.863 17.6433 36.3484C18.1994 36.4979 18.4715 36.9128 18.4228 37.4352C18.3774 37.9189 18.0246 38.2969 17.5307 38.3439C17.3426 38.3624 17.141 38.3221 16.9545 38.2734C15.3921 37.8568 13.9153 37.2353 12.5327 36.3955C12.4134 36.3232 12.2924 36.2561 12.1278 36.162C11.6876 36.6088 11.2491 37.0573 10.8056 37.499C9.64472 38.6614 8.27551 38.6647 7.11294 37.5091C6.53669 36.9363 5.95877 36.3669 5.3926 35.7857C4.37787 34.7477 4.38123 33.3468 5.40268 32.3054C5.87309 31.8267 6.35861 31.3648 6.83238 30.9012C6.47453 30.2327 6.08141 29.6297 5.81765 28.9746C5.37412 27.8761 5.00116 26.749 4.6282 25.6236C4.53916 25.3566 4.45347 25.2289 4.15107 25.2507C3.74787 25.281 3.33962 25.2575 2.93474 25.2575C1.21776 25.2575 0.628079 24.856 0.00311279 23.262V19.7346C0.624719 18.1406 1.22112 17.7341 2.93138 17.7341C3.46059 17.7341 3.98979 17.7341 4.5274 17.7341C4.98268 15.7168 5.75381 13.8675 6.8475 12.1307C6.35357 11.6402 5.87477 11.1716 5.40436 10.6929C4.38291 9.65316 4.37787 8.25063 5.39092 7.21426C5.97893 6.61461 6.57365 6.02168 7.17174 5.43211C8.22343 4.39406 9.67328 4.38902 10.7267 5.42875C11.1937 5.88898 11.6423 6.36938 12.1143 6.85816C13.88 5.74285 15.7415 4.97691 17.7407 4.52004C17.7407 3.80953 17.7357 3.13934 17.7407 2.46914C17.7474 1.68305 18.0162 1.00109 18.658 0.534141C18.9772 0.300664 19.3754 0.176367 19.7366 0.00167969C20.9126 0.00167969 22.0886 0.00167969 23.2646 0.00167969V0Z" fill="white"/>
<path id="Vector_2" d="M31.0551 19.1211C37.6609 19.1228 43.0151 24.486 43 31.0872C42.9849 37.6615 37.6122 43.0113 31.0349 43.0012C24.4577 42.9911 19.1018 37.6178 19.1169 31.0469C19.132 24.4474 24.4661 19.1194 31.0534 19.1211H31.0551ZM40.9554 31.0418C40.9353 25.5694 36.4883 21.1502 31.0198 21.1636C25.5614 21.177 21.143 25.6366 21.1615 31.1124C21.18 36.5428 25.6673 40.9923 31.0887 40.957C36.542 40.9218 40.9756 36.4655 40.9537 31.0418H40.9554Z" fill="white"/>
<path id="Vector_3" d="M9.56432 21.5016C9.57944 15.5622 13.9223 10.5316 19.7721 9.67492C24.4963 8.98288 29.2642 11.2286 31.6918 15.3052C31.8346 15.5454 31.9404 15.8461 31.9488 16.1232C31.9623 16.5549 31.6128 16.9228 31.2029 17.0286C30.7594 17.1411 30.3663 16.948 30.0487 16.5364C29.4439 15.7537 28.9063 14.887 28.1789 14.2369C25.3077 11.6704 21.9595 10.9061 18.3138 12.1592C14.6766 13.4089 12.4489 16.0376 11.7668 19.8337C11.0461 23.8515 12.8336 27.7164 16.276 29.8849C16.3583 29.937 16.4423 29.9874 16.5229 30.0428C17.0656 30.4073 17.2168 30.9918 16.8993 31.4924C16.5952 31.9711 16.0021 32.1021 15.4612 31.7897C14.3759 31.1615 13.4183 30.372 12.5833 29.4348C10.6345 27.2478 9.55592 24.4192 9.56432 21.5016Z" fill="white"/>
<path id="Vector_4" d="M29.5985 31.0477C28.9534 30.4027 28.315 29.7812 27.6984 29.1378C27.5304 28.9632 27.3742 28.7414 27.307 28.513C27.1759 28.0746 27.3943 27.6245 27.7807 27.4011C28.1655 27.1793 28.6644 27.2348 29.0189 27.5757C29.6036 28.1384 30.1697 28.7196 30.7443 29.2924C30.8417 29.3881 30.9442 29.4805 31.0904 29.6166C31.7691 28.9262 32.4193 28.2342 33.103 27.5774C33.7028 27.0013 34.6302 27.2751 34.8217 28.0612C34.9208 28.4693 34.7646 28.7986 34.4773 29.0824C33.8322 29.7224 33.187 30.3623 32.426 31.1182C32.6981 31.3399 32.967 31.5331 33.2055 31.7598C33.6507 32.1848 34.0875 32.6198 34.5109 33.065C34.9628 33.5403 34.9611 34.1484 34.5327 34.5599C34.1161 34.9613 33.5264 34.9512 33.0678 34.5078C32.5049 33.9636 31.9539 33.4059 31.4062 32.8466C31.3004 32.7374 31.2281 32.593 31.1206 32.4351C30.3831 33.1725 29.7329 33.8225 29.0861 34.4742C28.8022 34.7614 28.4712 34.9177 28.0647 34.8202C27.2767 34.6321 27.0063 33.7066 27.5758 33.1019C28.1319 32.5123 28.7199 31.9513 29.2911 31.3752C29.3885 31.2778 29.4792 31.1753 29.6002 31.046L29.5985 31.0477Z" fill="white"/>
</g>
<defs>
<clipPath id="clip0_46_152">
<rect width="43" height="43" fill="white"/>
</clipPath>
</defs>
</svg>
