<svg width="37" height="48" viewBox="0 0 37 48" fill="none" xmlns="http://www.w3.org/2000/svg">
<g id="_&#195;&#142;&#195;&#147;&#195;&#136;_2" clip-path="url(#clip0_46_130)">
<path id="Vector" d="M17.5882 0.14946L17.587 0.149457C16.2087 0.135114 14.215 0.480208 12.2819 1.18299L12.2818 1.183C0.189254 5.5772 -3.78537 20.9364 4.59905 30.9367C4.72259 31.0839 4.80857 31.2267 4.83184 31.391C4.85517 31.5557 4.81206 31.7174 4.73105 31.8948L4.73096 31.895C3.88199 33.7472 3.04192 35.6026 2.20172 37.4582C1.59066 38.8078 0.979531 40.1575 0.364844 41.5063C0.125123 42.0344 0.050118 42.4912 0.375863 42.947L17.5882 0.14946ZM17.5882 0.14946C27.1322 0.172582 34.6888 6.73931 36.0813 15.751C36.9544 21.4044 35.5273 26.4567 31.9453 30.8495L32.0511 30.9358M17.5882 0.14946L32.0511 30.9358M32.0511 30.9358L31.9453 30.8495C31.7857 31.0453 31.6887 31.2284 31.667 31.4305C31.6455 31.631 31.7008 31.8273 31.797 32.0435L31.7971 32.0436M32.0511 30.9358L31.7971 32.0436M31.7971 32.0436C33.2022 35.1897 34.5875 38.346 35.9645 41.507C36.0931 41.8027 36.1899 42.1369 36.1637 42.419L36.1637 42.4194M31.7971 32.0436L36.1637 42.4194M36.1637 42.4194C36.1313 42.7794 35.9711 43.041 35.7254 43.2017C35.4762 43.3647 35.1219 43.4346 34.687 43.3721C33.2008 43.1566 31.7183 42.9385 30.2435 42.674L30.2433 42.6739M36.1637 42.4194L30.2433 42.6739M30.2433 42.6739C30.0165 42.6335 29.8224 42.6377 29.6511 42.7222C29.4812 42.8061 29.3592 42.9566 29.2482 43.1504L29.2481 43.1505M30.2433 42.6739L29.2481 43.1505M29.2481 43.1505C28.782 43.9665 28.3015 44.7713 27.8202 45.5776C27.5174 46.0847 27.2143 46.5923 26.9142 47.1038L26.9142 47.1038M29.2481 43.1505L26.9142 47.1038M26.9142 47.1038C26.6414 47.5692 26.3184 47.8616 25.8283 47.838C25.3161 47.813 25.0154 47.4785 24.7848 46.9667C24.2365 45.7481 23.6857 44.5314 23.135 43.3149C22.3091 41.4906 21.4834 39.6667 20.6666 37.8375C20.5802 37.6437 20.4805 37.4897 20.3289 37.3924C20.1762 37.2945 19.9945 37.2691 19.778 37.2784H19.7779M26.9142 47.1038L19.7779 37.2784M19.7779 37.2784C18.7083 37.3248 17.636 37.3262 16.5667 37.2784L16.5665 37.2784M19.7779 37.2784H16.5665M16.5665 37.2784C16.3516 37.2691 16.1698 37.2928 16.0162 37.3885C15.863 37.4839 15.7614 37.6365 15.6738 37.8312L15.6736 37.8316M16.5665 37.2784L15.6736 37.8316M15.6736 37.8316C14.6829 40.0502 13.6797 42.2638 12.6765 44.4772C12.3315 45.2385 11.9865 45.9997 11.642 46.7611L11.7787 46.8229L11.6422 46.7607C11.6209 46.8074 11.6019 46.8512 11.5836 46.8935C11.5527 46.9647 11.5237 47.0316 11.489 47.1004L11.4886 47.1011M15.6736 37.8316L11.4886 47.1011M11.4886 47.1011C11.2434 47.5929 10.8744 47.8287 10.5178 47.8456C10.1617 47.8625 9.77421 47.663 9.48705 47.1919C8.66441 45.8385 7.85331 44.4781 7.06357 43.1064L7.06355 43.1064M11.4886 47.1011L7.06355 43.1064M7.06355 43.1064C6.96248 42.9309 6.85072 42.7928 6.69415 42.7158M7.06355 43.1064L6.69415 42.7158M34.0802 18.8165V18.8166C34.0745 27.7526 26.979 35.0664 18.2927 35.0709C9.47621 35.0738 2.37036 27.7527 2.39323 18.704C2.41467 9.78205 9.5292 2.5024 18.2375 2.50828C27.003 2.51416 34.0859 9.81336 34.0802 18.8151M34.0802 18.8165V18.8151M34.0802 18.8165V18.8151M34.0802 18.8165V18.8151M6.69415 42.7158C6.53626 42.6381 6.35864 42.635 6.15414 42.6709L6.69415 42.7158ZM6.81995 33.2057L6.67069 33.0525L6.58012 33.2531C5.92654 34.7 5.28386 36.1241 4.63683 37.5578C4.19132 38.545 3.74375 39.5367 3.28912 40.5437L3.17506 40.7963L3.44893 40.7536C3.82818 40.6945 4.19819 40.638 4.56179 40.5825C5.29777 40.4702 6.00752 40.3618 6.7146 40.2438L6.71466 40.2437C7.23564 40.1566 7.53439 40.1573 7.76822 40.2666C8.0025 40.3762 8.2013 40.6087 8.47907 41.0765C9.04439 42.0303 9.61111 42.9841 10.2203 44.0092L10.3679 44.2577L10.4861 43.9939C10.6845 43.5513 10.8815 43.1116 11.0777 42.6738C11.9381 40.7542 12.7811 38.873 13.6383 36.9581L13.7086 36.801L13.5434 36.7528C11.0814 36.0339 8.86331 34.8888 6.81995 33.2057ZM33.1438 40.6666V40.6343L33.1305 40.6049C32.4278 39.0488 31.743 37.5335 31.0586 36.019C30.6542 35.1242 30.25 34.2298 29.8423 33.3273L29.7616 33.1486L29.6102 33.2733C27.5764 34.9491 25.3505 36.1031 22.8816 36.8271L22.715 36.876L22.7876 37.0338C23.4788 38.5355 24.1533 40.0016 24.8306 41.4738C25.2153 42.3098 25.6008 43.1478 25.9907 43.9953L26.1101 44.2547L26.256 44.0092C26.8737 42.9696 27.4418 42.0129 28.0099 41.0547C28.2793 40.601 28.4777 40.3731 28.7084 40.2663C28.9381 40.16 29.2299 40.1601 29.7279 40.252L29.7281 40.2521C30.4508 40.3848 31.176 40.5092 31.9394 40.6401C32.274 40.6975 32.6159 40.7561 32.9681 40.8173L33.1438 40.8478V40.6695V40.6666Z" fill="white" stroke="black" stroke-width="0.3"/>
<path id="Vector_2" d="M13.4006 21.5062C13.2643 22.2459 13.147 22.9891 13.0298 23.7322C12.9606 24.1709 12.8914 24.6095 12.8183 25.0474C12.7234 25.6109 12.8254 26.1001 13.2901 26.454C13.7717 26.8224 14.2704 26.7758 14.7818 26.4962C14.8533 26.4572 14.9247 26.4181 14.9962 26.379C15.9532 25.8558 16.9101 25.3327 17.883 24.8435C18.0785 24.746 18.4015 24.7416 18.5956 24.8406C19.5708 25.3349 20.5282 25.8671 21.4847 26.3988C21.5369 26.4279 21.5892 26.4569 21.6415 26.486C22.1444 26.7656 22.6445 26.8457 23.139 26.4977M13.4006 21.5062L25.7159 16.155C26.4214 16.589 26.4979 17.5325 25.8873 18.1688C25.043 19.0483 24.1802 19.9074 23.3104 20.7592C23.0837 20.982 23.0086 21.1829 23.071 21.5164M13.4006 21.5062C13.4601 21.18 13.4062 20.9732 13.1725 20.7461L13.4006 21.5062ZM23.139 26.4977C23.6348 26.1482 23.751 25.6429 23.6546 25.0576M23.139 26.4977L23.0525 26.375M23.139 26.4977L23.0526 26.375C23.0526 26.375 23.0526 26.375 23.0525 26.375M23.6546 25.0576C23.5872 24.6505 23.5229 24.2428 23.4585 23.8353C23.3362 23.0607 23.2139 22.2863 23.071 21.5164M23.6546 25.0576L23.5066 25.0821C23.5066 25.082 23.5066 25.082 23.5066 25.0819M23.6546 25.0576L23.5066 25.0819M23.071 21.5164L22.9235 21.5439C22.9235 21.5439 22.9235 21.5438 22.9235 21.5438M23.071 21.5164L22.9235 21.5438M23.0525 26.375C22.8315 26.5306 22.6155 26.5872 22.4003 26.5773C22.1817 26.5673 21.9539 26.488 21.7144 26.3549L21.7144 26.3549C21.6619 26.3257 21.6094 26.2965 21.5568 26.2673C20.6011 25.736 19.6415 25.2026 18.6638 24.707C18.539 24.6434 18.3841 24.6173 18.2388 24.6184C18.0932 24.6194 17.9396 24.6477 17.816 24.7093L17.8156 24.7095C16.8403 25.1999 15.8812 25.7242 14.9247 26.2472C14.8531 26.2863 14.7815 26.3255 14.7099 26.3646L14.7099 26.3646C14.4682 26.4967 14.2405 26.5676 14.0245 26.5681C13.8114 26.5685 13.598 26.5006 13.3812 26.3348L13.3809 26.3346C13.1727 26.1761 13.0501 25.9915 12.9879 25.7859C12.9249 25.5777 12.9212 25.3393 12.9662 25.0723L12.9663 25.0721C13.0398 24.6313 13.1092 24.1915 13.1785 23.7523C13.2954 23.011 13.4121 22.2716 13.5481 21.5334L13.5481 21.5331C13.5802 21.3575 13.5847 21.1986 13.5405 21.047C13.4959 20.8942 13.4064 20.7642 13.277 20.6385L13.2769 20.6384C12.7823 20.1585 12.2975 19.6708 11.8117 19.182C11.4777 18.8459 11.1431 18.5093 10.8045 18.1744C10.6082 17.9796 10.4653 17.7823 10.3909 17.5716C10.3176 17.364 10.3072 17.1337 10.3916 16.8638L10.3916 16.8637C10.4756 16.5946 10.6131 16.4093 10.7879 16.2805C10.9648 16.1502 11.1893 16.071 11.4563 16.0311C11.747 15.9878 12.0371 15.9433 12.3267 15.8988C13.1018 15.7799 13.8744 15.6613 14.651 15.5672C14.8927 15.5381 15.1074 15.481 15.2911 15.3585C15.4769 15.2347 15.6171 15.0535 15.7269 14.801L15.727 14.8009C16.0348 14.0914 16.3758 13.3987 16.7186 12.7023C16.8695 12.3958 17.0207 12.0886 17.1696 11.779L17.1696 11.7788C17.2856 11.5372 17.4329 11.3632 17.6091 11.2485C17.7849 11.134 17.9988 11.0724 18.2582 11.0704L18.2847 11.0702C18.5299 11.0828 18.7293 11.1523 18.894 11.2692C19.0668 11.3918 19.21 11.5729 19.3259 11.8151C19.4862 12.1503 19.6484 12.4835 19.8104 12.8161C20.1456 13.5046 20.4798 14.1908 20.7935 14.8885C20.8812 15.0839 20.9896 15.236 21.1362 15.3454C21.2827 15.4548 21.4552 15.5122 21.6552 15.5392C22.6864 15.6802 23.7148 15.8373 24.7404 16.0103C25.0695 16.0662 25.3894 16.1299 25.6372 16.2827L25.6373 16.2828C26.2498 16.6595 26.3333 17.4874 25.7791 18.065C24.9363 18.9429 24.0747 19.8008 23.2054 20.652L23.2052 20.6522C23.082 20.7733 22.9892 20.899 22.9398 21.0495C22.8902 21.2004 22.8893 21.361 22.9235 21.5438M23.0525 26.375C23.2752 26.2181 23.4077 26.0306 23.4762 25.8197C23.5456 25.6062 23.5523 25.3592 23.5066 25.0819M23.5066 25.0819C23.4388 24.6725 23.3743 24.2637 23.3099 23.8557C23.1878 23.0825 23.0661 22.3119 22.9235 21.5438M15.5228 19.6798C15.8972 20.066 16.03 20.4907 15.9199 21.029L16.1816 17.6807C15.7365 17.7356 15.2908 17.8091 14.8472 17.8823C14.6524 17.9145 14.458 17.9465 14.2642 17.9769L14.2766 18.1364L14.1785 18.2267C14.3147 18.3747 14.4476 18.5205 14.5786 18.6642C14.8979 19.0143 15.206 19.3522 15.5226 19.6797L15.5228 19.6798ZM20.9931 19.6342C21.3109 19.3218 21.6187 18.9963 21.947 18.6491C22.0891 18.4987 22.2351 18.3443 22.3874 18.1852L22.5869 17.9767L22.3016 17.9332C22.0991 17.9023 21.9047 17.8693 21.7159 17.8372C21.3019 17.7668 20.9149 17.7011 20.5294 17.6727C20.1857 17.6467 19.9119 17.5525 19.6921 17.3919C19.472 17.2311 19.2954 16.996 19.1589 16.6707L19.1589 16.6707C19.0071 16.3089 18.8274 15.9567 18.6358 15.5812C18.5492 15.4115 18.4602 15.237 18.3703 15.0548L18.2339 14.7786L18.1005 15.0563C17.9928 15.2806 17.8901 15.493 17.7912 15.6974C17.5829 16.1284 17.3917 16.5239 17.2059 16.9215L17.2058 16.9217C17.098 17.1534 16.9626 17.3264 16.7977 17.4491C16.633 17.5716 16.4312 17.6499 16.1816 17.6807L20.9931 19.6342Z" fill="white" stroke="black" stroke-width="0.3"/>
</g>
<defs>
<clipPath id="clip0_46_130">
<rect width="36.48" height="48" fill="white"/>
</clipPath>
</defs>
</svg>
